<?xml version="1.0" encoding="utf-8" standalone="no"?>
<!DOCTYPE svg PUBLIC "-//W3C//DTD SVG 1.1//EN"
  "http://www.w3.org/Graphics/SVG/1.1/DTD/svg11.dtd">
<!-- Created with matplotlib (http://matplotlib.org/) -->
<svg height="288pt" version="1.1" viewBox="0 0 432 288" width="432pt" xmlns="http://www.w3.org/2000/svg" xmlns:xlink="http://www.w3.org/1999/xlink">
 <defs>
  <style type="text/css">
*{stroke-linecap:butt;stroke-linejoin:round;}
  </style>
 </defs>
 <g id="figure_1">
  <g id="patch_1">
   <path d="
M0 288
L432 288
L432 0
L0 0
z
" style="fill:#ffffff;"/>
  </g>
  <g id="axes_1">
   <g id="patch_2">
    <path d="
M54 252
L388.8 252
L388.8 28.8
L54 28.8
z
" style="fill:#ffffff;"/>
   </g>
   <g id="line2d_1">
    <path clip-path="url(#p124b8dd147)" d="
M54 133.544
L54.3348 129.882
L54.6696 128.666
L55.0044 130.79
L56.0088 126.812
L56.6784 134.189
L57.0132 128.638
L57.348 127.881
L57.6828 122.858
L58.0176 108.78
L58.3524 109.138
L58.6872 103.43
L59.022 108.131
L59.3568 106.006
L59.6916 110.006
L60.0264 108.854
L60.3612 109.399
L60.696 106.653
L61.0308 99.625
L61.3656 109.668
L61.7004 107.529
L62.0352 101.622
L62.37 108.855
L62.7048 109.435
L63.0396 107.891
L63.3744 97.6701
L63.7092 97.8906
L64.3788 77.2408
L64.7136 80.9779
L65.3832 95.1568
L65.718 93.7463
L66.0528 93.6744
L66.3876 100.85
L66.7224 97.7856
L67.0572 107.693
L67.392 102.828
L67.7268 109.049
L68.0616 107.678
L68.3964 112.439
L68.7312 111.758
L69.066 112.448
L69.4008 114.368
L69.7356 112.453
L70.0704 118.473
L70.74 124.274
L71.0748 121.85
L71.4096 122.176
L72.0792 128.225
L72.414 138.263
L72.7488 141.124
L73.0836 142.421
L73.4184 144.789
L73.7532 145.539
L74.4228 134.018
L74.7576 143.815
L75.0924 144.211
L75.4272 145.331
L75.762 144.871
L76.4316 153.39
L76.7664 146.268
L77.1012 148.198
L77.436 148.908
L77.7708 158.31
L78.1056 151.495
L78.4404 149.681
L79.4448 157.196
L79.7796 156.912
L80.4492 147.717
L80.784 154.792
L81.1188 154.344
L81.4536 150.749
L81.7884 151.394
L82.1232 149.183
L82.458 147.951
L83.1276 142.3
L83.4624 142.619
L83.7972 144.377
L84.132 143.4
L84.4668 155.263
L84.8016 155.802
L85.1364 154.631
L85.4712 167.781
L85.806 165.886
L86.1408 166.845
L86.4756 162.463
L86.8104 160.988
L87.1452 165.975
L87.48 159.972
L87.8148 162.563
L88.1496 159.414
L88.4844 159.51
L88.8192 165.714
L89.154 163.735
L89.4888 163.867
L89.8236 165.101
L90.1584 168.807
L90.4932 165.191
L90.828 168.748
L91.1628 165.26
L91.4976 168.316
L92.1672 176.614
L92.502 178.485
L92.8368 173.007
L93.1716 174.269
L93.5064 172.755
L94.176 167.514
L94.5108 158.104
L94.8456 153.226
L95.5152 141.488
L95.85 147.161
L96.1848 147.179
L96.5196 141.503
L96.8544 138.773
L97.1892 132.377
L97.524 133.841
L97.8588 134.195
L98.5284 142.696
L98.8632 142.229
L99.198 139.936
L99.5328 143.402
L99.8676 137.058
L100.202 147.958
L100.537 149.647
L100.872 143.272
L101.207 150.729
L101.542 150.012
L101.876 142.942
L102.211 149.222
L102.546 152.983
L102.881 145.214
L103.216 146.223
L103.55 141.789
L104.22 158.313
L104.555 150.872
L104.89 153.216
L105.224 153.236
L105.559 156.551
L105.894 158.56
L106.229 155.141
L106.564 159.613
L106.898 154.764
L107.233 156.772
L107.568 157.715
L107.903 156.735
L108.572 164.123
L108.907 167.232
L109.242 164.709
L109.577 171.467
L109.912 167.116
L110.246 168.033
L110.581 172.975
L110.916 181.187
L111.251 166.213
L111.586 163.4
L111.92 155.588
L112.255 156.632
L112.59 152.85
L112.925 153.289
L113.26 154.268
L113.929 142.378
L114.264 138.608
L114.599 136.414
L115.268 129.773
L115.603 130.733
L116.273 126.9
L116.608 125.369
L116.942 125.682
L117.612 129.951
L117.947 134.488
L118.282 130.874
L118.616 131.683
L118.951 129.986
L119.286 135.94
L119.621 137.962
L119.956 131.521
L120.625 128.679
L120.96 120.214
L121.295 125.86
L121.63 123.238
L121.964 124.348
L122.299 123.576
L122.634 117.826
L122.969 114.359
L123.304 112.198
L123.638 117.19
L123.973 124.915
L124.308 124.104
L124.643 124.98
L125.312 130.153
L125.647 134.185
L125.982 135.555
L126.317 141.955
L126.652 144.336
L126.986 155.172
L127.656 164.378
L127.991 160.735
L128.326 158.547
L128.66 158.447
L128.995 163.728
L129.665 169.488
L130 173.62
L130.334 173.611
L130.669 179.19
L131.004 169.872
L131.339 172.374
L132.008 184.12
L132.343 181.893
L132.678 180.729
L133.013 189.922
L133.348 186.837
L134.017 197.076
L134.352 195.249
L134.687 194.079
L135.022 196.39
L135.356 195.331
L135.691 200.305
L136.361 197.059
L136.696 196.387
L137.365 214.547
L137.7 215.386
L138.035 218.178
L138.37 219.797
L138.704 227.127
L139.039 223.147
L139.709 225.304
L140.044 223.381
L140.378 222.633
L141.048 208.345
L141.718 196.243
L142.387 189.236
L142.722 193.188
L143.057 186.771
L143.392 186.623
L143.726 185.38
L144.061 188.155
L144.731 179.334
L145.066 176.686
L145.4 177.743
L145.735 175.788
L146.07 175.846
L146.405 184.533
L146.74 182.918
L147.074 179.721
L147.409 184.216
L147.744 178.547
L148.079 175.874
L148.414 174.838
L148.748 172.74
L149.083 171.645
L149.418 172.334
L149.753 178.533
L150.088 175.272
L150.422 181.213
L150.757 172.566
L151.092 180.113
L151.427 174.15
L151.762 175.398
L152.096 175.877
L152.431 175.92
L152.766 175.424
L153.101 172.037
L153.436 170.394
L153.77 175.291
L154.105 176.089
L154.44 161.742
L154.775 153.722
L155.11 149.513
L155.444 151.054
L155.779 148.036
L156.114 142.599
L156.449 142.65
L156.784 140.2
L157.118 136.432
L157.453 140.087
L157.788 137.346
L158.123 136.984
L158.458 139.512
L158.792 139.139
L159.127 136.433
L159.462 132.143
L159.797 136.91
L160.466 132.964
L160.801 140.466
L161.471 135.279
L161.806 143.338
L162.14 144.447
L162.475 143.84
L162.81 143.878
L163.145 138.449
L163.814 135.588
L164.149 148.227
L164.484 145.694
L164.819 136.742
L165.488 143.806
L165.823 139.521
L166.158 143.838
L166.493 141.904
L166.828 136.625
L167.162 136.294
L167.497 137.266
L168.167 128.085
L168.502 130.924
L168.836 124.304
L169.171 129.931
L169.506 128.195
L169.841 120.151
L170.176 128.631
L170.51 119.088
L170.845 127.021
L171.18 123.427
L171.515 121.541
L171.85 127.737
L172.519 135.954
L172.854 137.172
L173.189 134.927
L173.524 137.726
L173.858 137.474
L174.193 134.606
L174.528 140.041
L174.863 139.437
L175.198 138.441
L175.532 140.332
L175.867 137.83
L176.202 140.707
L176.537 138.65
L176.872 137.965
L177.206 133.939
L177.541 131.804
L178.211 142.301
L178.546 138.457
L179.215 126.218
L179.55 117.65
L179.885 125.478
L180.22 125.45
L180.554 119.524
L180.889 103.161
L181.224 107.083
L181.559 107.441
L181.894 108.649
L182.228 98.9671
L182.563 93.897
L182.898 98.2614
L183.233 99.2994
L183.568 95.8479
L184.237 106.632
L184.572 100.338
L184.907 101.441
L185.242 106.813
L185.576 107.543
L185.911 116.906
L186.246 97.5458
L186.581 92.2484
L186.916 95.154
L187.25 92.6568
L187.585 92.3567
L187.92 96.6188
L188.255 107.228
L188.59 101.691
L188.924 101.594
L189.259 100.567
L189.594 111.505
L189.929 115.891
L190.264 113.218
L190.598 106.045
L190.933 108.295
L191.268 108.283
L191.603 106.398
L192.272 109.893
L192.607 114.434
L192.942 116.123
L193.277 121.206
L193.946 136.069
L194.281 128.058
L194.616 133.775
L194.951 134.441
L195.286 127.873
L195.62 117.785
L195.955 124.22
L196.625 121.207
L196.96 128.172
L197.629 134.145
L197.964 125.019
L198.299 119.282
L198.634 115.472
L198.968 125.069
L199.303 121.876
L199.638 113.284
L199.973 118.182
L200.308 117.866
L200.977 128.892
L201.312 123.387
L201.647 124.034
L201.982 128.283
L202.316 123.767
L202.651 121.784
L202.986 113.206
L203.321 118.421
L203.656 115.005
L203.99 114.381
L204.325 113.033
L204.66 109.996
L204.995 112.916
L205.33 111.304
L205.664 110.294
L205.999 112.751
L206.334 102.84
L206.669 100.692
L207.004 103.953
L207.338 109.071
L207.673 111.969
L208.008 109.201
L208.343 100.71
L208.678 100.139
L209.012 93.6444
L209.682 100.41
L210.352 113.609
L210.686 112.85
L211.021 119.961
L211.356 120.07
L211.691 120.777
L212.026 121.987
L212.36 120.212
L212.695 114.902
L213.03 120.689
L213.365 117.512
L213.7 125.802
L214.034 124.44
L214.369 126.955
L214.704 124.382
L215.039 127.739
L215.374 124.452
L215.708 124.776
L216.043 123.786
L216.378 123.187
L216.713 121.072
L217.048 116.63
L217.382 118.403
L217.717 116.842
L218.052 123.83
L218.387 124.659
L218.722 127.545
L219.056 121.13
L219.391 122.495
L219.726 128.172
L220.061 129.946
L220.396 130.025
L220.73 122.297
L221.065 117.742
L221.4 123.687
L221.735 120.716
L222.07 121.898
L222.404 120.84
L222.739 121.002
L223.074 122.032
L223.744 130.89
L224.413 134.346
L224.748 138.866
L225.083 139.383
L225.418 143.753
L225.752 144.455
L226.087 143.155
L226.422 134.903
L226.757 135.335
L227.426 123.358
L227.761 129.496
L228.431 113.053
L228.766 119.204
L229.1 130.579
L229.435 133.604
L229.77 131.824
L230.105 133.505
L230.44 128.911
L230.774 127.565
L231.444 115.512
L231.779 114.137
L232.783 103.321
L233.118 97.9916
L233.453 95.8566
L233.788 91.5348
L234.122 90.7062
L234.457 89.2014
L234.792 88.2727
L235.127 90.9264
L235.462 89.3019
L236.131 98.7084
L236.466 95.3787
L236.801 101.789
L237.136 100.199
L237.47 102.038
L237.805 105.953
L238.14 112.806
L238.81 104.326
L239.144 98.9439
L239.479 100.179
L239.814 98.8736
L240.149 85.1084
L240.484 87.6378
L240.818 98.4437
L241.153 90.77
L241.488 98.1248
L241.823 90.749
L242.158 79.0268
L242.492 85.6381
L242.827 89.1076
L243.162 90.2233
L243.497 87.1503
L243.832 85.5417
L244.166 87.2925
L244.501 91.5736
L244.836 93.9813
L245.171 90.0016
L245.506 92.6515
L245.84 101.512
L246.175 91.4067
L246.51 88.0029
L246.845 87.52
L247.18 88.1298
L247.514 82.1485
L248.184 106.744
L248.854 105.815
L249.188 115.372
L249.523 114.266
L249.858 108.903
L250.193 107.314
L250.862 111.893
L251.532 96.9404
L251.867 98.5257
L252.202 95.8901
L252.536 102.829
L252.871 104.259
L253.206 100.652
L253.541 100.195
L253.876 112.384
L254.21 112.787
L254.545 107.786
L254.88 110.502
L255.215 109.146
L255.55 109.985
L255.884 117.861
L256.219 115.406
L256.554 107.906
L257.224 100.983
L257.558 91.8435
L257.893 96.0583
L258.228 97.5205
L258.563 102.341
L258.898 97.3239
L259.232 97.5663
L259.567 99.6841
L259.902 106.072
L260.237 102.206
L260.572 103.906
L260.906 109.479
L261.576 117.261
L261.911 124.75
L262.246 122.409
L262.58 114.936
L262.915 111.366
L263.25 116.15
L263.585 128.213
L263.92 126.162
L264.254 118.984
L264.589 124.866
L265.259 133.197
L265.594 131.14
L265.928 138.796
L266.263 138.456
L266.598 137.373
L266.933 139.899
L267.268 138.59
L267.602 142.943
L267.937 142.921
L268.272 140.49
L268.607 141.662
L269.276 135.904
L269.611 133.863
L269.946 140.193
L270.281 140.481
L270.616 141.728
L270.95 139.155
L271.285 143.602
L271.62 143.624
L271.955 140.106
L272.29 143.392
L272.624 144.987
L272.959 140.836
L273.294 142.924
L273.629 146.257
L273.964 151.553
L274.298 147.617
L274.633 147.626
L274.968 141.839
L275.303 149.221
L275.638 145.44
L275.972 145.966
L276.307 150.194
L276.642 150.641
L276.977 148.554
L277.312 144.055
L277.646 142.217
L278.316 153.352
L278.651 151.375
L279.32 162.674
L279.655 163.5
L279.99 160.348
L280.325 163.252
L280.66 160.452
L280.994 155.885
L281.329 157.608
L281.664 157.195
L281.999 161.724
L282.334 158.329
L282.668 162.675
L283.003 176.043
L283.338 174.038
L283.673 174.297
L284.677 183.545
L285.012 182.213
L285.347 185.738
L286.016 178.247
L286.351 177.666
L286.686 181.575
L287.021 178.162
L287.356 185.949
L287.69 185.269
L288.36 194.064
L288.695 201.191
L289.03 199.433
L289.364 194.916
L289.699 194.3
L290.034 192.504
L290.369 195.303
L290.704 194.468
L291.038 197.223
L291.373 191.706
L291.708 196.818
L292.043 197.758
L292.378 193.122
L292.712 199.926
L293.047 202.741
L293.382 207.271
L293.717 195.964
L294.052 207.204
L294.386 209.451
L295.056 217.836
L295.391 215.498
L295.726 216.085
L296.06 215.485
L296.395 216.991
L296.73 217.07
L297.065 207.624
L297.734 214.998
L298.069 215.859
L298.404 213.824
L298.739 205.983
L299.074 212.07
L299.408 212.915
L299.743 214.174
L300.078 210.058
L300.413 217.549
L300.748 213.285
L301.082 200.902
L301.417 217.624
L301.752 223.676
L302.087 220.351
L302.756 234.719
L303.091 234.587
L303.426 235.041
L303.761 240.651
L304.096 241.093
L304.43 237.131
L304.765 227.657
L305.1 227.554
L305.435 220.767
L305.77 209.724
L306.104 216.202
L306.439 211.792
L306.774 221.744
L307.444 227.352
L307.778 224.148
L308.113 223.054
L308.783 208.926
L309.118 210.67
L309.452 214.287
L309.787 215.398
L310.122 220.667
L310.457 219.614
L310.792 215.843
L311.126 216.388
L311.796 224.978
L312.131 225.87
L312.466 222.358
L312.8 226.954
L313.135 225.345
L313.805 232.569
L314.14 230.106
L314.474 232.664
L314.809 224.984
L315.144 226.718
L315.479 235.744
L315.814 234.345
L316.148 237.367
L316.483 229.254
L316.818 226.924
L317.153 225.378
L317.488 221.614
L317.822 220.58
L318.157 218.585
L318.492 211.854
L319.496 200.653
L319.831 199.413
L320.166 199.93
L320.501 195.869
L320.836 198.825
L321.17 198.194
L321.505 197.298
L321.84 192.422
L322.175 190.511
L322.51 191.327
L322.844 192.828
L323.179 182.206
L323.514 181.145
L323.849 184.765
L324.184 194.112
L324.518 195.593
L324.853 192.645
L325.188 194.537
L325.523 194.838
L325.858 199.66
L326.192 202.197
L326.527 203.292
L326.862 195.601
L327.197 191.769
L327.532 197.027
L327.866 185.537
L328.201 178.469
L328.536 183.437
L328.871 178.596
L329.206 175.696
L329.54 167.314
L329.875 168.031
L330.88 174.509
L331.214 180.435
L331.549 180.102
L332.219 175.698
L332.554 177.219
L332.888 166.749
L333.223 168.238
L333.558 172.174
L334.228 171.536
L334.562 171.561
L334.897 171.465
L335.567 160.74
L335.902 160.089
L336.571 178.645
L336.906 163.066
L337.241 160.223
L337.576 170.56
L337.91 175.236
L338.245 169.949
L338.58 168.894
L338.915 169.638
L339.25 168.121
L339.584 171.227
L339.919 172.256
L340.254 181.181
L340.589 183.405
L340.924 176.615
L341.258 173.418
L341.593 173.502
L341.928 172.969
L342.263 162.047
L342.598 173.426
L342.932 174.267
L343.267 172.196
L343.602 163.261
L343.937 162.141
L344.272 163.156
L344.941 158.454
L345.611 172.187
L345.946 174.471
L346.28 172.375
L346.615 167.647
L346.95 170.072
L347.285 179.113
L347.62 179.17
L347.954 177.376
L348.289 174.736
L348.624 173.655
L348.959 181.359
L349.294 184.961
L349.628 182.826
L349.963 175.909
L350.298 180.159
L350.633 173.064
L350.968 177.192
L351.302 188.805
L351.637 194.889
L351.972 192.394
L352.307 198.555
L352.976 202.125
L353.646 190.224
L354.316 184.741
L354.985 181.381
L355.32 195.387
L355.655 196.628
L355.99 187.141
L356.324 184.705
L356.659 184.692
L356.994 190.363
L357.329 186.177
L357.664 178.917
L357.998 181.218
L359.003 146.745
L359.338 148.608
L359.672 143.175
L360.007 144.724
L360.342 134.188
L360.677 141.336
L361.012 144.397
L361.346 146.139
L361.681 141.202
L362.016 142.073
L362.351 140.077
L362.686 152.32
L363.02 148.159
L363.355 148.118
L363.69 147.372
L364.025 144.797
L364.694 137.118
L365.029 128.121
L365.364 134.667
L366.034 133.905
L366.368 131.877
L366.703 123.083
L367.038 122.626
L367.708 112.599
L368.042 101.811
L368.377 97.8165
L368.712 89.1248
L369.047 89.8379
L369.382 90.1534
L369.716 82.8121
L370.051 88.647
L370.386 87.7175
L370.721 81.1249
L371.056 78.7071
L371.39 71.9862
L371.725 68.9776
L372.06 71.0826
L372.395 69.7205
L372.73 59.3434
L373.064 59.9935
L373.399 54.8353
L373.734 42.8128
L374.069 47.381
L374.404 49.603
L375.073 42.4315
L375.408 51.9997
L375.743 49.308
L376.078 45.5744
L376.412 37.412
L376.747 36.7982
L377.082 38.1422
L377.752 49.1424
L378.086 48.8536
L378.421 43.8114
L378.756 46.8551
L379.091 45.7001
L379.426 54.6832
L379.76 51.2524
L380.095 54.4215
L380.43 59.2796
L380.765 60.7063
L381.1 52.2238
L382.104 37.9283
L382.774 32.7591
L383.108 33.7335
L383.443 36.5379
L383.778 42.0923
L384.113 49.7785
L384.448 46.2187
L384.782 50.2756
L385.117 57.6431
L385.787 65.7129
L386.456 57.6888
L386.791 58.6177
L387.126 47.8607
L387.461 41.5589
L387.796 42.4021
L388.13 35.674
L388.465 34.9262
L388.465 34.9262" style="fill:none;stroke:#0000ff;stroke-linecap:square;"/>
   </g>
   <g id="patch_3">
    <path d="
M54 252
L54 28.8" style="fill:none;stroke:#000000;stroke-linecap:square;stroke-linejoin:miter;"/>
   </g>
   <g id="patch_4">
    <path d="
M54 28.8
L388.8 28.8" style="fill:none;stroke:#000000;stroke-linecap:square;stroke-linejoin:miter;"/>
   </g>
   <g id="patch_5">
    <path d="
M388.8 252
L388.8 28.8" style="fill:none;stroke:#000000;stroke-linecap:square;stroke-linejoin:miter;"/>
   </g>
   <g id="patch_6">
    <path d="
M54 252
L388.8 252" style="fill:none;stroke:#000000;stroke-linecap:square;stroke-linejoin:miter;"/>
   </g>
   <g id="matplotlib.axis_1">
    <g id="xtick_1">
     <g id="line2d_2">
      <defs>
       <path d="
M0 0
L0 -4" id="mc7db9fdffb" style="stroke:#000000;stroke-width:0.5;"/>
      </defs>
      <g>
       <use style="stroke:#000000;stroke-width:0.5;" x="54.0" xlink:href="#mc7db9fdffb" y="252.0"/>
      </g>
     </g>
     <g id="line2d_3">
      <defs>
       <path d="
M0 0
L0 4" id="m5a7d422ac3" style="stroke:#000000;stroke-width:0.5;"/>
      </defs>
      <g>
       <use style="stroke:#000000;stroke-width:0.5;" x="54.0" xlink:href="#m5a7d422ac3" y="28.8"/>
      </g>
     </g>
     <g id="text_1">
      <!-- 0 -->
      <defs>
       <path d="
M4.15625 35.2969
Q4.15625 48 6.76562 55.7344
Q9.375 63.4844 14.5156 67.6719
Q19.6719 71.875 27.4844 71.875
Q33.25 71.875 37.5938 69.5469
Q41.9375 67.2344 44.7656 62.8594
Q47.6094 58.5 49.2188 52.2188
Q50.8281 45.9531 50.8281 35.2969
Q50.8281 22.7031 48.2344 14.9688
Q45.6562 7.23438 40.5 3
Q35.3594 -1.21875 27.4844 -1.21875
Q17.1406 -1.21875 11.2344 6.20312
Q4.15625 15.1406 4.15625 35.2969
M13.1875 35.2969
Q13.1875 17.6719 17.3125 11.8281
Q21.4375 6 27.4844 6
Q33.5469 6 37.6719 11.8594
Q41.7969 17.7188 41.7969 35.2969
Q41.7969 52.9844 37.6719 58.7812
Q33.5469 64.5938 27.3906 64.5938
Q21.3438 64.5938 17.7188 59.4688
Q13.1875 52.9375 13.1875 35.2969" id="ArialMT-30"/>
      </defs>
      <g transform="translate(51.66640625 263.1578125)scale(0.1 -0.1)">
       <use xlink:href="#ArialMT-30"/>
      </g>
     </g>
    </g>
    <g id="xtick_2">
     <g id="line2d_4">
      <g>
       <use style="stroke:#000000;stroke-width:0.5;" x="120.96" xlink:href="#mc7db9fdffb" y="252.0"/>
      </g>
     </g>
     <g id="line2d_5">
      <g>
       <use style="stroke:#000000;stroke-width:0.5;" x="120.96" xlink:href="#m5a7d422ac3" y="28.8"/>
      </g>
     </g>
     <g id="text_2">
      <!-- 200 -->
      <defs>
       <path d="
M50.3438 8.45312
L50.3438 0
L3.03125 0
Q2.9375 3.17188 4.04688 6.10938
Q5.85938 10.9375 9.82812 15.625
Q13.8125 20.3125 21.3438 26.4688
Q33.0156 36.0312 37.1094 41.625
Q41.2188 47.2188 41.2188 52.2031
Q41.2188 57.4219 37.4688 61
Q33.7344 64.5938 27.7344 64.5938
Q21.3906 64.5938 17.5781 60.7812
Q13.7656 56.9844 13.7188 50.25
L4.6875 51.1719
Q5.60938 61.2812 11.6562 66.5781
Q17.7188 71.875 27.9375 71.875
Q38.2344 71.875 44.2344 66.1562
Q50.25 60.4531 50.25 52
Q50.25 47.7031 48.4844 43.5469
Q46.7344 39.4062 42.6562 34.8125
Q38.5781 30.2188 29.1094 22.2188
Q21.1875 15.5781 18.9375 13.2031
Q16.7031 10.8438 15.2344 8.45312
z
" id="ArialMT-32"/>
      </defs>
      <g transform="translate(113.00453125 263.1578125)scale(0.1 -0.1)">
       <use xlink:href="#ArialMT-32"/>
       <use x="55.615234375" xlink:href="#ArialMT-30"/>
       <use x="111.23046875" xlink:href="#ArialMT-30"/>
      </g>
     </g>
    </g>
    <g id="xtick_3">
     <g id="line2d_6">
      <g>
       <use style="stroke:#000000;stroke-width:0.5;" x="187.92" xlink:href="#mc7db9fdffb" y="252.0"/>
      </g>
     </g>
     <g id="line2d_7">
      <g>
       <use style="stroke:#000000;stroke-width:0.5;" x="187.92" xlink:href="#m5a7d422ac3" y="28.8"/>
      </g>
     </g>
     <g id="text_3">
      <!-- 400 -->
      <defs>
       <path d="
M32.3281 0
L32.3281 17.1406
L1.26562 17.1406
L1.26562 25.2031
L33.9375 71.5781
L41.1094 71.5781
L41.1094 25.2031
L50.7812 25.2031
L50.7812 17.1406
L41.1094 17.1406
L41.1094 0
z

M32.3281 25.2031
L32.3281 57.4688
L9.90625 25.2031
z
" id="ArialMT-34"/>
      </defs>
      <g transform="translate(179.8809375 263.1578125)scale(0.1 -0.1)">
       <use xlink:href="#ArialMT-34"/>
       <use x="55.615234375" xlink:href="#ArialMT-30"/>
       <use x="111.23046875" xlink:href="#ArialMT-30"/>
      </g>
     </g>
    </g>
    <g id="xtick_4">
     <g id="line2d_8">
      <g>
       <use style="stroke:#000000;stroke-width:0.5;" x="254.88" xlink:href="#mc7db9fdffb" y="252.0"/>
      </g>
     </g>
     <g id="line2d_9">
      <g>
       <use style="stroke:#000000;stroke-width:0.5;" x="254.88" xlink:href="#m5a7d422ac3" y="28.8"/>
      </g>
     </g>
     <g id="text_4">
      <!-- 600 -->
      <defs>
       <path d="
M49.75 54.0469
L41.0156 53.375
Q39.8438 58.5469 37.7031 60.8906
Q34.125 64.6562 28.9062 64.6562
Q24.7031 64.6562 21.5312 62.3125
Q17.3906 59.2812 14.9844 53.4688
Q12.5938 47.6562 12.5 36.9219
Q15.6719 41.75 20.2656 44.0938
Q24.8594 46.4375 29.8906 46.4375
Q38.6719 46.4375 44.8438 39.9688
Q51.0312 33.5 51.0312 23.25
Q51.0312 16.5 48.125 10.7188
Q45.2188 4.9375 40.1406 1.85938
Q35.0625 -1.21875 28.6094 -1.21875
Q17.625 -1.21875 10.6875 6.85938
Q3.76562 14.9375 3.76562 33.5
Q3.76562 54.25 11.4219 63.6719
Q18.1094 71.875 29.4375 71.875
Q37.8906 71.875 43.2812 67.1406
Q48.6875 62.4062 49.75 54.0469
M13.875 23.1875
Q13.875 18.6562 15.7969 14.5
Q17.7188 10.3594 21.1875 8.17188
Q24.6562 6 28.4688 6
Q34.0312 6 38.0312 10.4844
Q42.0469 14.9844 42.0469 22.7031
Q42.0469 30.125 38.0781 34.3906
Q34.125 38.6719 28.125 38.6719
Q22.1719 38.6719 18.0156 34.3906
Q13.875 30.125 13.875 23.1875" id="ArialMT-36"/>
      </defs>
      <g transform="translate(246.9659375 263.1578125)scale(0.1 -0.1)">
       <use xlink:href="#ArialMT-36"/>
       <use x="55.615234375" xlink:href="#ArialMT-30"/>
       <use x="111.23046875" xlink:href="#ArialMT-30"/>
      </g>
     </g>
    </g>
    <g id="xtick_5">
     <g id="line2d_10">
      <g>
       <use style="stroke:#000000;stroke-width:0.5;" x="321.84" xlink:href="#mc7db9fdffb" y="252.0"/>
      </g>
     </g>
     <g id="line2d_11">
      <g>
       <use style="stroke:#000000;stroke-width:0.5;" x="321.84" xlink:href="#m5a7d422ac3" y="28.8"/>
      </g>
     </g>
     <g id="text_5">
      <!-- 800 -->
      <defs>
       <path d="
M17.6719 38.8125
Q12.2031 40.8281 9.5625 44.5312
Q6.9375 48.25 6.9375 53.4219
Q6.9375 61.2344 12.5469 66.5469
Q18.1719 71.875 27.4844 71.875
Q36.8594 71.875 42.5781 66.4219
Q48.2969 60.9844 48.2969 53.1719
Q48.2969 48.1875 45.6719 44.5
Q43.0625 40.8281 37.75 38.8125
Q44.3438 36.6719 47.7812 31.875
Q51.2188 27.0938 51.2188 20.4531
Q51.2188 11.2812 44.7188 5.03125
Q38.2344 -1.21875 27.6406 -1.21875
Q17.0469 -1.21875 10.5469 5.04688
Q4.04688 11.3281 4.04688 20.7031
Q4.04688 27.6875 7.59375 32.3906
Q11.1406 37.1094 17.6719 38.8125
M15.9219 53.7188
Q15.9219 48.6406 19.1875 45.4062
Q22.4688 42.1875 27.6875 42.1875
Q32.7656 42.1875 36.0156 45.375
Q39.2656 48.5781 39.2656 53.2188
Q39.2656 58.0625 35.9062 61.3594
Q32.5625 64.6562 27.5938 64.6562
Q22.5625 64.6562 19.2344 61.4219
Q15.9219 58.2031 15.9219 53.7188
M13.0938 20.6562
Q13.0938 16.8906 14.875 13.375
Q16.6562 9.85938 20.1719 7.92188
Q23.6875 6 27.7344 6
Q34.0312 6 38.125 10.0469
Q42.2344 14.1094 42.2344 20.3594
Q42.2344 26.7031 38.0156 30.8594
Q33.7969 35.0156 27.4375 35.0156
Q21.2344 35.0156 17.1562 30.9062
Q13.0938 26.8125 13.0938 20.6562" id="ArialMT-38"/>
      </defs>
      <g transform="translate(313.94 263.1578125)scale(0.1 -0.1)">
       <use xlink:href="#ArialMT-38"/>
       <use x="55.615234375" xlink:href="#ArialMT-30"/>
       <use x="111.23046875" xlink:href="#ArialMT-30"/>
      </g>
     </g>
    </g>
    <g id="xtick_6">
     <g id="line2d_12">
      <g>
       <use style="stroke:#000000;stroke-width:0.5;" x="388.8" xlink:href="#mc7db9fdffb" y="252.0"/>
      </g>
     </g>
     <g id="line2d_13">
      <g>
       <use style="stroke:#000000;stroke-width:0.5;" x="388.8" xlink:href="#m5a7d422ac3" y="28.8"/>
      </g>
     </g>
     <g id="text_6">
      <!-- 1000 -->
      <defs>
       <path d="
M37.25 0
L28.4688 0
L28.4688 56
Q25.2969 52.9844 20.1406 49.9531
Q14.9844 46.9219 10.8906 45.4062
L10.8906 53.9062
Q18.2656 57.375 23.7812 62.2969
Q29.2969 67.2344 31.5938 71.875
L37.25 71.875
z
" id="ArialMT-31"/>
      </defs>
      <g transform="translate(378.46171875 263.1578125)scale(0.1 -0.1)">
       <use xlink:href="#ArialMT-31"/>
       <use x="55.615234375" xlink:href="#ArialMT-30"/>
       <use x="111.23046875" xlink:href="#ArialMT-30"/>
       <use x="166.845703125" xlink:href="#ArialMT-30"/>
      </g>
     </g>
    </g>
   </g>
   <g id="matplotlib.axis_2">
    <g id="ytick_1">
     <g id="line2d_14">
      <defs>
       <path d="
M0 0
L4 0" id="md7965d1ba0" style="stroke:#000000;stroke-width:0.5;"/>
      </defs>
      <g>
       <use style="stroke:#000000;stroke-width:0.5;" x="54.0" xlink:href="#md7965d1ba0" y="252.0"/>
      </g>
     </g>
     <g id="line2d_15">
      <defs>
       <path d="
M0 0
L-4 0" id="md9a1c1a7cd" style="stroke:#000000;stroke-width:0.5;"/>
      </defs>
      <g>
       <use style="stroke:#000000;stroke-width:0.5;" x="388.8" xlink:href="#md9a1c1a7cd" y="252.0"/>
      </g>
     </g>
     <g id="text_7">
      <!-- −25 -->
      <defs>
       <path d="
M52.8281 31.2031
L5.5625 31.2031
L5.5625 39.4062
L52.8281 39.4062
z
" id="ArialMT-2212"/>
       <path d="
M4.15625 18.75
L13.375 19.5312
Q14.4062 12.7969 18.1406 9.39062
Q21.875 6 27.1562 6
Q33.5 6 37.8906 10.7812
Q42.2812 15.5781 42.2812 23.4844
Q42.2812 31 38.0625 35.3438
Q33.8438 39.7031 27 39.7031
Q22.75 39.7031 19.3281 37.7656
Q15.9219 35.8438 13.9688 32.7656
L5.71875 33.8438
L12.6406 70.6094
L48.25 70.6094
L48.25 62.2031
L19.6719 62.2031
L15.8281 42.9688
Q22.2656 47.4688 29.3438 47.4688
Q38.7188 47.4688 45.1562 40.9688
Q51.6094 34.4688 51.6094 24.2656
Q51.6094 14.5469 45.9531 7.46875
Q39.0625 -1.21875 27.1562 -1.21875
Q17.3906 -1.21875 11.2031 4.25
Q5.03125 9.71875 4.15625 18.75" id="ArialMT-35"/>
      </defs>
      <g transform="translate(33.99375 254.58515625)scale(0.1 -0.1)">
       <use xlink:href="#ArialMT-2212"/>
       <use x="58.3984375" xlink:href="#ArialMT-32"/>
       <use x="114.013671875" xlink:href="#ArialMT-35"/>
      </g>
     </g>
    </g>
    <g id="ytick_2">
     <g id="line2d_16">
      <g>
       <use style="stroke:#000000;stroke-width:0.5;" x="54.0" xlink:href="#md7965d1ba0" y="227.2"/>
      </g>
     </g>
     <g id="line2d_17">
      <g>
       <use style="stroke:#000000;stroke-width:0.5;" x="388.8" xlink:href="#md9a1c1a7cd" y="227.2"/>
      </g>
     </g>
     <g id="text_8">
      <!-- −20 -->
      <g transform="translate(34.071875 229.78515625)scale(0.1 -0.1)">
       <use xlink:href="#ArialMT-2212"/>
       <use x="58.3984375" xlink:href="#ArialMT-32"/>
       <use x="114.013671875" xlink:href="#ArialMT-30"/>
      </g>
     </g>
    </g>
    <g id="ytick_3">
     <g id="line2d_18">
      <g>
       <use style="stroke:#000000;stroke-width:0.5;" x="54.0" xlink:href="#md7965d1ba0" y="202.4"/>
      </g>
     </g>
     <g id="line2d_19">
      <g>
       <use style="stroke:#000000;stroke-width:0.5;" x="388.8" xlink:href="#md9a1c1a7cd" y="202.4"/>
      </g>
     </g>
     <g id="text_9">
      <!-- −15 -->
      <g transform="translate(33.99375 204.98515625)scale(0.1 -0.1)">
       <use xlink:href="#ArialMT-2212"/>
       <use x="58.3984375" xlink:href="#ArialMT-31"/>
       <use x="114.013671875" xlink:href="#ArialMT-35"/>
      </g>
     </g>
    </g>
    <g id="ytick_4">
     <g id="line2d_20">
      <g>
       <use style="stroke:#000000;stroke-width:0.5;" x="54.0" xlink:href="#md7965d1ba0" y="177.6"/>
      </g>
     </g>
     <g id="line2d_21">
      <g>
       <use style="stroke:#000000;stroke-width:0.5;" x="388.8" xlink:href="#md9a1c1a7cd" y="177.6"/>
      </g>
     </g>
     <g id="text_10">
      <!-- −10 -->
      <g transform="translate(34.071875 180.18515625)scale(0.1 -0.1)">
       <use xlink:href="#ArialMT-2212"/>
       <use x="58.3984375" xlink:href="#ArialMT-31"/>
       <use x="114.013671875" xlink:href="#ArialMT-30"/>
      </g>
     </g>
    </g>
    <g id="ytick_5">
     <g id="line2d_22">
      <g>
       <use style="stroke:#000000;stroke-width:0.5;" x="54.0" xlink:href="#md7965d1ba0" y="152.8"/>
      </g>
     </g>
     <g id="line2d_23">
      <g>
       <use style="stroke:#000000;stroke-width:0.5;" x="388.8" xlink:href="#md9a1c1a7cd" y="152.8"/>
      </g>
     </g>
     <g id="text_11">
      <!-- −5 -->
      <g transform="translate(39.5546875 155.38515625)scale(0.1 -0.1)">
       <use xlink:href="#ArialMT-2212"/>
       <use x="58.3984375" xlink:href="#ArialMT-35"/>
      </g>
     </g>
    </g>
    <g id="ytick_6">
     <g id="line2d_24">
      <g>
       <use style="stroke:#000000;stroke-width:0.5;" x="54.0" xlink:href="#md7965d1ba0" y="128.0"/>
      </g>
     </g>
     <g id="line2d_25">
      <g>
       <use style="stroke:#000000;stroke-width:0.5;" x="388.8" xlink:href="#md9a1c1a7cd" y="128.0"/>
      </g>
     </g>
     <g id="text_12">
      <!-- 0 -->
      <g transform="translate(45.3328125 130.58515625)scale(0.1 -0.1)">
       <use xlink:href="#ArialMT-30"/>
      </g>
     </g>
    </g>
    <g id="ytick_7">
     <g id="line2d_26">
      <g>
       <use style="stroke:#000000;stroke-width:0.5;" x="54.0" xlink:href="#md7965d1ba0" y="103.2"/>
      </g>
     </g>
     <g id="line2d_27">
      <g>
       <use style="stroke:#000000;stroke-width:0.5;" x="388.8" xlink:href="#md9a1c1a7cd" y="103.2"/>
      </g>
     </g>
     <g id="text_13">
      <!-- 5 -->
      <g transform="translate(45.2546875 105.78515625)scale(0.1 -0.1)">
       <use xlink:href="#ArialMT-35"/>
      </g>
     </g>
    </g>
    <g id="ytick_8">
     <g id="line2d_28">
      <g>
       <use style="stroke:#000000;stroke-width:0.5;" x="54.0" xlink:href="#md7965d1ba0" y="78.4"/>
      </g>
     </g>
     <g id="line2d_29">
      <g>
       <use style="stroke:#000000;stroke-width:0.5;" x="388.8" xlink:href="#md9a1c1a7cd" y="78.4"/>
      </g>
     </g>
     <g id="text_14">
      <!-- 10 -->
      <g transform="translate(40.4453125 80.98515625)scale(0.1 -0.1)">
       <use xlink:href="#ArialMT-31"/>
       <use x="55.615234375" xlink:href="#ArialMT-30"/>
      </g>
     </g>
    </g>
    <g id="ytick_9">
     <g id="line2d_30">
      <g>
       <use style="stroke:#000000;stroke-width:0.5;" x="54.0" xlink:href="#md7965d1ba0" y="53.6"/>
      </g>
     </g>
     <g id="line2d_31">
      <g>
       <use style="stroke:#000000;stroke-width:0.5;" x="388.8" xlink:href="#md9a1c1a7cd" y="53.6"/>
      </g>
     </g>
     <g id="text_15">
      <!-- 15 -->
      <g transform="translate(40.3671875 56.18515625)scale(0.1 -0.1)">
       <use xlink:href="#ArialMT-31"/>
       <use x="55.615234375" xlink:href="#ArialMT-35"/>
      </g>
     </g>
    </g>
    <g id="ytick_10">
     <g id="line2d_32">
      <g>
       <use style="stroke:#000000;stroke-width:0.5;" x="54.0" xlink:href="#md7965d1ba0" y="28.8"/>
      </g>
     </g>
     <g id="line2d_33">
      <g>
       <use style="stroke:#000000;stroke-width:0.5;" x="388.8" xlink:href="#md9a1c1a7cd" y="28.8"/>
      </g>
     </g>
     <g id="text_16">
      <!-- 20 -->
      <g transform="translate(39.65 31.38515625)scale(0.1 -0.1)">
       <use xlink:href="#ArialMT-32"/>
       <use x="55.615234375" xlink:href="#ArialMT-30"/>
      </g>
     </g>
    </g>
   </g>
   <g id="text_17">
    <!-- 한글 제목2 -->
    <defs>
     <path d="
M46.9219 58.9219
Q46.9219 58.25 46.1875 57.4688
Q45.4688 56.6875 44.9844 56.0938
Q44.2031 54.0469 43.6094 52.7812
Q41.9531 49.0781 40.2031 46.25
Q39.125 44.5781 37.125 41.7969
Q35.125 39.0312 35.125 38.9219
L39.4219 33.1719
Q40.0938 32.2969 41.5625 31.2656
Q43.0312 30.25 44.5938 29.1719
Q46.3438 26.6406 47.4062 23.75
Q48.4844 20.875 48.4844 18.8281
Q48.4844 17.75 48 16.8281
Q47.5156 15.9062 46.5312 15.9062
Q45.0781 15.9062 43.2656 19.3125
Q41.4688 22.7344 39.7031 26.1406
Q36.2031 32.0938 35.125 33.8594
Q34.4375 35.0312 33.4688 36.6875
Q32.2031 35.2188 31.3125 34.25
Q26.25 28.6875 21.2656 24.3906
Q15.7031 19.7031 11.3125 16.7188
Q6.92188 13.75 5.26562 13.75
L4.78125 14.1406
Q4.78125 14.3438 14.6406 23.2188
Q20.9844 28.875 25.2656 34.4375
Q30.5312 41.1719 34.0469 47.5156
Q38.25 55.2188 38.25 57.4688
L22.6406 56.0938
Q22.0469 55.7031 21.4062 55.2656
Q20.7812 54.8281 19.8125 54.8281
Q18.3438 54.8281 14.5312 56.625
Q10.7344 58.4375 10.7344 59.4219
Q10.7344 60.0938 12 60.0938
Q13.2656 60.0938 18.8281 59.6094
Q21.0781 59.4219 23.0312 59.4219
Q28.0938 59.4219 30.875 59.6094
Q33.6562 59.8125 35.8125 60.0938
Q36.4844 60.0938 38.0469 60.9688
Q39.6094 61.8594 40 61.8594
Q41.3594 61.8594 44.1406 60.9688
Q46.9219 60.0938 46.9219 58.9219
M64.6875 68
L64.2031 10.25
Q64.2031 5.5625 63.125 2.29688
Q62.0469 -0.96875 60.7812 -0.96875
Q59.8125 -0.96875 59.1719 1.35938
Q58.5312 3.70312 58.5312 8.6875
L58.5312 39.9062
L49.75 39.0312
Q48.875 38.5312 48.1875 38.1875
Q47.5156 37.8594 46.9219 37.8594
Q45.9531 37.8594 43.0781 39.3594
Q40.2031 40.875 40.2031 41.4688
Q40.2031 41.8594 41.125 41.9531
Q42.0469 42.0469 43.125 42.0469
L46.6406 42.0469
Q50.3438 42.0469 55.9062 42.6406
Q56.875 42.7344 58.4375 42.9219
L58.3438 66.7344
Q58.3438 67.9062 55.2188 69.7031
Q52.0938 71.5156 48.7812 73.4688
Q48.7812 74.0469 50.0938 74.3906
Q51.4219 74.7344 52.2031 74.7344
Q55.125 74.7344 59.3125 73.4688
Q64.875 71.8125 64.875 69.5625
z

M81.2656 74.6406
L80.7812 1.07812
Q80.7812 -3.21875 80.2969 -5.95312
Q79.3125 -11.2188 76.9844 -11.2188
Q75.9062 -11.2188 75.5156 -8.4375
Q75.125 -5.65625 75.125 -2.53125
L74.9219 73.6562
Q74.9219 74.8281 71.3125 76.7812
Q67.3125 78.7344 63.4219 80.6875
Q63.5156 81.6562 64.7812 82.0938
Q66.0469 82.5312 67.2188 82.5312
Q68.4844 82.5312 73.4531 81.1719
Q78.4375 79.8125 79.5625 79.2188
Q80.6875 78.6406 81.0156 77.8594
Q81.3594 77.0781 81.3594 76
z
" id="AppleMyungjo-c81c"/>
     <path d="
M36.0938 67.9062
Q30.8281 67.9062 29.6562 68.3906
Q27.5156 69.1719 24.875 70.8281
Q21.6562 72.875 21.6562 73.8594
Q21.6562 74.1406 22.6406 74.3438
Q23.4219 74.3438 26.4375 73.8438
Q29.4688 73.3594 30.8281 73.3594
L42.3438 73.4688
Q45.1719 73.4688 46.3438 72.9219
Q47.5156 72.3906 47.5156 70.6406
Q47.5156 69.1719 44.0938 68.5312
Q40.6875 67.9062 36.0938 67.9062
M63.0312 59.6094
Q62.7344 58.3438 60.8281 57.7969
Q58.9219 57.2656 56.0938 57.2656
L51.3125 57.3594
Q49.5625 57.3594 42.9688 56.9219
Q36.3906 56.4844 35.2188 56.4844
Q32.9844 56.4844 29.9062 56.0469
Q26.8281 55.6094 23.6094 55.125
Q21.0781 54.4375 18.5312 53.8594
Q16.875 53.8594 12.4844 55.8594
Q8.09375 57.8594 8.09375 58.6406
Q8.09375 59.0312 8.875 59.125
Q8.98438 59.125 9.26562 59.125
Q11.0312 59.125 14.5312 58.7344
Q18.0469 58.3438 19.9062 58.3438
Q22.3438 58.3438 34.5781 59.2188
Q46.8281 60.0938 47.6094 60.4844
Q48.7812 60.4844 50.3438 61.2656
Q53.8594 63.0312 55.0312 63.0312
Q59.6094 63.0312 61.3594 62.3906
Q63.125 61.75 63.125 60.2969
z

M95.7031 40.1875
Q95.4219 38.9219 93.75 38.4375
Q92.0938 37.9531 88.4844 37.9531
L76.4844 37.3594
L76.0938 24.3906
Q76.0938 20 75.0156 16.9688
Q73.9531 13.9531 72.0938 13.9531
Q71.3125 13.9531 70.875 16.7812
Q70.4375 19.6094 70.4375 23.7031
L69.9531 73.4688
Q69.9531 74.9219 63.8438 77.9375
Q57.75 80.9688 57.75 81.6562
Q57.75 82.5312 58.9688 82.8281
Q60.2031 83.125 61.5625 83.125
Q65.0781 83.125 70.3438 81.4688
Q76.9844 79.4219 76.9844 76.7812
Q76.9844 76.2969 76.7812 75.125
Q76.5938 73.9531 76.5938 73.1719
L76.4844 40.4844
L81.6562 40.7812
L86.8281 43.5156
L90.0469 43.5156
Q92.7812 43.5156 94.2969 43.0156
Q95.8125 42.5312 95.8125 40.9688
z

M55.2188 36.0938
Q55.2188 29.8594 49.3594 25.4688
Q43.9062 21.3594 37.3594 21.3594
Q28.3906 21.3594 22.6406 26.8281
Q17.6562 31.6094 17.6562 36.9688
Q17.6562 44.9688 25.5625 49.0781
Q29.6562 50.5312 33.8594 52
Q34.4375 52.2969 34.6406 52.3906
Q35.125 52.6875 35.125 53.8594
Q35.125 54.4375 34.8281 55.3125
Q34.5312 56.1875 34.5312 56.7812
Q34.5312 57.4688 35.125 57.4688
Q36.5938 57.4688 38.25 56.1875
Q39.9062 54.9219 39.9062 53.5625
Q39.9062 52.9688 39.6094 52.4844
Q39.5156 52.2969 39.2188 52
Q44.5938 51.2188 47.2188 49.9531
Q55.2188 46.0469 55.2188 36.9688
z

M86.1406 -2.64062
Q86.1406 -4.29688 83.8906 -5.17188
Q81.6562 -6.04688 75.6094 -6.04688
L45.3594 -6.25
Q40.9844 -6.25 39.2188 -5.07812
Q36.9844 -3.51562 36.9844 0.78125
L36.9844 9.17188
Q36.9844 11.2188 33.9062 12.4844
Q30.8281 13.75 27.6094 15.125
Q27.6094 16.0938 29.4062 16.3906
Q31.2188 16.6875 32.9844 16.6875
Q38.25 16.6875 41.0312 15.9062
Q43.8125 15.125 43.8125 13.5625
Q43.8125 13.1719 43.5156 12.0938
Q43.2188 11.0312 43.2188 10.4375
L43.2188 0.875
Q43.2188 -1.5625 43.7969 -2.53125
Q44.3906 -3.51562 45.6562 -3.51562
L66.1406 -2.53125
Q67.3125 -2.53125 71.125 -0.96875
Q71.8125 -0.78125 72.9844 -0.09375
L77.9531 0.09375
Q81.4688 0.09375 83.7969 -0.484375
Q86.1406 -1.07812 86.1406 -2.64062
M50.5312 37.0781
L50.5312 37.9531
Q50.5312 42.25 47.3125 45.3594
Q43.0312 49.5625 39.8125 49.5625
Q39.125 48.3906 38.6406 48
Q37.5625 47.125 36.2969 47.125
Q33.1719 47.125 29.0781 44.4844
Q23.9062 41.1719 23.9062 36.3906
Q23.9062 32.4844 27.9531 29.2188
Q32 25.9531 36.875 25.9531
Q42.0469 25.9531 46.0469 28.875
Q50.5312 32.1875 50.5312 37.0781" id="AppleMyungjo-d55c"/>
     <path d="
M94.7344 47.5156
L94.7344 47.125
Q94.7344 45.4688 93.4688 44.8281
Q92.2031 44.1875 89.75 44.1875
L72.6875 44.6875
Q68.5938 44.6875 60.2969 44.4375
Q52 44.1875 49.8594 44.1875
Q40.7812 44.1875 33.2656 43.7031
Q25.75 43.2188 23.4219 42.5312
Q21.75 41.8594 20.4375 41.3125
Q19.125 40.7812 18.3438 40.7812
Q16.6875 40.7812 10.875 43.2656
Q5.07812 45.75 5.07812 47.125
Q5.07812 47.9062 6.4375 47.9062
Q9.17188 47.9062 16.6875 47.0312
Q20.875 46.5312 23.0312 46.5312
L44.2969 47.0312
Q52.5938 47.0312 60.2031 47.5156
Q62.8281 47.6094 66.8281 48.0938
Q67.3125 49.4688 67.6094 50.5312
Q68.4844 53.5625 69.6094 58.2969
Q70.7344 63.0312 71.3125 67.7031
Q71.5156 69.1719 71.7031 71.125
Q66.6406 70.9219 60.2969 70.7188
Q53.9531 70.5312 52.3906 70.5312
L32.9844 69.5625
Q32.5938 69.5625 31.0781 68.875
Q29.5625 68.1875 28.7812 68.1875
Q27.3125 68.1875 22.4844 70.5312
Q17.6562 72.875 17.6562 73.9531
Q17.6562 74.7344 18.7344 74.7344
Q21.75 74.3438 25.2656 74
Q28.7812 73.6562 31.8125 73.6562
L51.7031 73.75
L69.4688 74.6406
Q70.0469 74.6406 70.9219 75.0312
Q72.9844 75.9062 73.2656 75.9062
Q74.6406 75.9062 77.7031 74.625
Q80.7812 73.3594 80.7812 72.2969
Q80.7812 71.7031 80.1875 71.0156
Q79.6094 70.3438 78.9219 69.6562
Q78.25 67.3125 77.6562 65.5625
Q76.2031 61.5625 75.2188 58.9219
Q73.75 54.6406 72.2969 51.3125
Q71.8125 50.1406 70.9219 48.3906
L77.5625 48.9688
Q81.6562 49.8594 85.8594 50.7344
Q89.4688 50.7344 92.0938 50
Q94.7344 49.2656 94.7344 47.5156
M80.2969 0.09375
Q80.2969 -1.26562 78.9688 -1.95312
Q77.6562 -2.64062 73.6562 -2.64062
L35.5156 -2.73438
Q30.8281 -2.73438 28.6875 -1.17188
Q26.1406 0.6875 26.1406 5.07812
L25.9531 12
Q25.9531 12.875 22.8281 14.0469
Q19.7031 15.2188 19.7031 15.9062
Q19.7031 17.3594 23.0312 17.3594
Q25.8594 17.3594 28.4844 17.0156
Q31.125 16.6875 33.75 16.3906
L52.2969 16.875
Q57.9531 16.875 60.9219 17.1094
Q63.9062 17.3594 66.0469 17.75
Q66.0469 19.7031 66.3906 23.7031
Q66.7344 27.7031 66.7344 29.2656
Q65.5625 29.0781 64.5938 29.0781
Q58.7344 28.5781 51.7031 28.5781
Q45.8594 28.5781 40.5312 28.1406
Q35.2188 27.7031 33.75 27.4219
Q33.5625 27.4219 32.5312 26.7812
Q31.5156 26.1406 30.5312 26.1406
Q28.9844 26.1406 24.3906 28.2812
Q19.8125 30.4375 19.8125 31.4219
Q19.8125 32.0938 21.4688 32.0938
L21.8594 32.0938
Q25.5625 32.0938 31.2188 31.8438
Q36.875 31.6094 37.75 31.6094
Q47.5156 31.6094 56.1875 31.9531
Q64.875 32.2969 65.4688 32.4844
Q66.1406 32.4844 67.2188 32.9688
Q68.2969 33.4688 68.5938 33.4688
Q70.1406 33.4688 72.875 32.6875
Q75.6094 31.9062 75.6094 30.7344
Q75.6094 30.1406 74.625 29.2656
Q73.6562 28.3906 73.5625 28.1875
L70.5312 18.25
Q72 18.0469 72.6875 17.8594
Q74.9219 17.1719 75.2188 15.9062
L75.3125 15.5156
Q75.3125 14.6406 74.0469 14.1875
Q72.7812 13.75 71.2188 13.75
L58.0469 13.8594
L32.7812 13.3594
L32.6875 2.4375
Q32.6875 0.6875 34.6406 0.6875
L53.2656 0.484375
Q56.9844 0.484375 59.6094 0.578125
Q62.25 0.6875 62.5312 0.875
Q64.2969 0.875 67.6562 2.09375
Q71.0312 3.3125 73.0781 3.3125
Q76.6875 3.3125 78.4844 2.625
Q80.2969 1.95312 80.2969 0.09375" id="AppleMyungjo-ae00"/>
     <path id="AppleMyungjo-20"/>
     <path d="
M95.0312 35.9062
Q95.0312 33.1719 90.1406 33.1719
Q88.6875 33.1719 85.0781 33.4531
Q81.4688 33.75 79.5156 33.75
L50.4375 32.7812
Q40.5938 32.7812 31.3125 31.9062
Q28.2969 31.6094 24.0938 31.0312
Q23.5156 31.0312 21.9531 30.0938
Q20.3906 29.1719 19.2188 29.1719
Q17.4688 29.1719 11.7031 31.9531
Q5.95312 34.7344 5.95312 35.7031
Q5.95312 36 6.73438 36.1875
L7.125 36.1875
Q11.3125 35.7031 15.75 35.2656
Q20.2031 34.8281 23.2188 34.8281
L23.8125 34.8281
Q29.5625 34.8281 39.0312 35.3125
Q42.1406 35.4219 47.4219 35.8125
L47.3125 49.5625
L33.6562 48.875
Q33.1719 47.5156 32.7812 46.8281
Q31.5156 44.6875 30.1406 44.6875
Q29.0781 44.6875 28.5312 47.125
Q28 49.5625 28 51.125
L26.8281 70.8281
Q26.8281 72.2969 23.3125 73.75
Q19.8125 75.2188 19.8125 76
Q19.8125 76.875 21.5156 77.2188
Q23.2188 77.5625 24.4844 77.5625
Q26.25 77.5625 29.4219 76.8281
Q32.5938 76.0938 33.1719 76.0938
Q36 76.0938 49.7031 76.5781
Q63.4219 77.0781 64 77.3594
Q64.3906 77.3594 65.8438 77.8438
Q67.3125 78.3438 67.7031 78.3438
Q69.75 78.3438 72.875 76.875
Q74.8281 76 74.8281 75.125
Q74.8281 74.4375 74.0938 73.5
Q73.3594 72.5781 73.2656 72.0938
Q72.875 70.0469 72.5781 68.3438
Q72.2969 66.6406 71.4219 62.8281
L69.2656 53.9531
Q70.25 53.8594 71.2656 53.6094
Q72.2969 53.3594 72.3906 52.1875
Q72.3906 50.5312 70.5312 50.1875
Q68.6875 49.8594 67.125 49.8594
L53.6562 49.5625
L53.6562 36.0938
L62.8281 36.3906
L75.5156 37.2656
Q76.6875 37.2656 79.2188 38.4844
Q81.75 39.7031 82.0469 39.7031
Q88.7812 39.7031 91.9062 38.6719
Q95.0312 37.6562 95.0312 35.9062
M75.3125 19.9062
L75.4219 19.6094
Q75.4219 19.2188 74.7344 18.0469
Q74.0469 16.875 74.0469 16.0938
L73.8594 1.46875
Q73.8594 -2.64062 72.6406 -6.09375
Q71.4219 -9.5625 69.6562 -9.5625
Q68.5938 -9.5625 68.2969 -6.73438
Q68 -3.90625 68 -1.07812
L67.5156 17.6562
Q63.8125 17.3594 59.3594 17.1094
Q54.9219 16.875 50.8281 16.875
L34.9219 15.8125
Q34.6406 15.8125 33.4688 15.0781
Q32.2969 14.3438 31.0312 14.3438
Q29.3594 14.3438 24.9219 16.5781
Q20.4844 18.8281 20.4844 19.8125
Q20.4844 20 20.9844 20.0938
Q21.0781 20.0938 21.5625 20.1875
Q22.3438 20.1875 26.1406 19.7031
Q29.9531 19.2188 32.2969 19.2188
L36.2031 19.125
Q39.6094 19.125 52.0469 19.7031
Q64.4844 20.2969 65.0781 20.6875
Q65.75 20.6875 67.4062 21.4062
Q69.0781 22.1406 69.2656 22.1406
Q70.3438 22.1406 72.6875 21.4062
Q75.0312 20.6875 75.3125 19.9062
M66.5312 74.25
L33.4688 73.1719
L33.75 52
L50.6406 52.6875
L65.1719 53.5625
L66.1406 63.9062
Q66.3438 65.75 66.4375 69.1562
Q66.5312 72.5781 66.5312 73.1719
z
" id="AppleMyungjo-baa9"/>
     <path d="
M40.4844 28.4844
L27.7031 17.6562
Q22.9219 13.6562 18.25 7.8125
L42.6406 7.8125
Q46.7344 7.8125 48.2969 10.25
Q49.5625 12.2969 51.4219 20.2969
L54.7344 20.2969
L53.2656 0
L9.46875 0
L9.46875 2.73438
Q14.4375 8.48438 18.9219 13.4688
Q19.0312 13.5625 27.4219 22.8281
Q31.0312 26.8281 34.6406 30.8281
Q39.4219 36.0938 41.9531 41.7031
Q44.4844 47.3125 44.4844 52.1875
Q44.4844 58.1406 41.2656 61.6562
Q38.0469 65.1719 32.0938 65.1719
Q25.4688 65.1719 20.9844 61.9531
Q16.875 59.0312 16.875 55.2188
Q16.875 53.75 17.5625 53.2188
Q18.25 52.6875 20.0938 52.1875
Q24.9844 50.7344 24.9844 46.3438
Q24.9844 43.8125 23.3125 42.25
Q21.6562 40.6875 19.125 40.6875
Q16 40.6875 13.8438 43.4062
Q11.7031 46.1406 11.7031 50.4375
Q11.7031 58.5312 17.7031 63.75
Q23.7031 68.9688 33.0781 68.9688
Q42.25 68.9688 48.1875 63.7969
Q54.1406 58.6406 54.1406 50.5312
Q54.1406 45.0781 50.7812 39.7031
Q47.4219 34.3438 40.4844 28.4844" id="AppleMyungjo-32"/>
    </defs>
    <g transform="translate(191.7384375 23.8)scale(0.12 -0.12)">
     <use xlink:href="#AppleMyungjo-d55c"/>
     <use x="99.90243530273438" xlink:href="#AppleMyungjo-ae00"/>
     <use x="199.80487060546875" xlink:href="#AppleMyungjo-20"/>
     <use x="239.8048553466797" xlink:href="#AppleMyungjo-c81c"/>
     <use x="339.70729064941406" xlink:href="#AppleMyungjo-baa9"/>
     <use x="439.60972595214844" xlink:href="#AppleMyungjo-32"/>
    </g>
   </g>
  </g>
 </g>
 <defs>
  <clipPath id="p124b8dd147">
   <rect height="223.2" width="334.8" x="54.0" y="28.8"/>
  </clipPath>
 </defs>
</svg>
