<?xml version="1.0" encoding="utf-8" standalone="no"?>
<!DOCTYPE svg PUBLIC "-//W3C//DTD SVG 1.1//EN"
  "http://www.w3.org/Graphics/SVG/1.1/DTD/svg11.dtd">
<!-- Created with matplotlib (http://matplotlib.org/) -->
<svg height="288pt" version="1.1" viewBox="0 0 432 288" width="432pt" xmlns="http://www.w3.org/2000/svg" xmlns:xlink="http://www.w3.org/1999/xlink">
 <defs>
  <style type="text/css">
*{stroke-linecap:butt;stroke-linejoin:round;}
  </style>
 </defs>
 <g id="figure_1">
  <g id="patch_1">
   <path d="
M0 288
L432 288
L432 0
L0 0
z
" style="fill:#ffffff;"/>
  </g>
  <g id="axes_1">
   <g id="patch_2">
    <path d="
M54 252
L388.8 252
L388.8 28.8
L54 28.8
z
" style="fill:#ffffff;"/>
   </g>
   <g id="patch_3">
    <path clip-path="url(#p124b8dd147)" d="
M221.4 224.1
C222.288 224.1 223.14 221.16 223.767 215.928
C224.395 210.696 224.748 203.599 224.748 196.2
C224.748 188.801 224.395 181.704 223.767 176.472
C223.14 171.24 222.288 168.3 221.4 168.3
C220.512 168.3 219.66 171.24 219.033 176.472
C218.405 181.704 218.052 188.801 218.052 196.2
C218.052 203.599 218.405 210.696 219.033 215.928
C219.66 221.16 220.512 224.1 221.4 224.1
z
" style="fill:#0000ff;opacity:0.3;stroke:#0000ff;stroke-linejoin:miter;"/>
   </g>
   <g id="line2d_1">
    <path clip-path="url(#p124b8dd147)" d="
M54 199.622
L54.3348 201.925
L54.6696 202.652
L55.0044 201.859
L55.3392 197.589
L55.674 197.441
L56.0088 195.252
L56.3436 194.863
L57.0132 190.365
L57.348 190.099
L57.6828 194.048
L58.0176 192.64
L58.3524 189.41
L58.6872 191.588
L59.022 189.301
L59.3568 192.11
L59.6916 189.904
L60.0264 193.092
L60.3612 189.23
L60.696 190.216
L61.0308 188.408
L61.7004 183.247
L62.0352 185.104
L62.37 184.694
L62.7048 183.922
L63.0396 189.1
L63.3744 190.814
L64.3788 189.57
L64.7136 189.415
L65.0484 190.014
L65.3832 192.88
L65.718 192.413
L66.0528 194.532
L66.3876 190.297
L67.0572 200.722
L67.7268 194.813
L68.0616 196.269
L68.3964 199.127
L69.066 206.646
L69.7356 207.284
L70.0704 210.8
L70.74 208.767
L71.4096 204.871
L71.7444 202.578
L72.0792 204.919
L72.414 201.82
L72.7488 205.998
L73.0836 203.843
L73.4184 208.985
L74.088 211.374
L74.4228 208.786
L74.7576 210.463
L75.0924 217.13
L76.0968 223.425
L76.4316 221.929
L76.7664 221.102
L77.1012 218.232
L77.7708 217.639
L78.1056 220.632
L78.4404 220.62
L78.7752 219.84
L79.11 220.458
L79.4448 217.919
L79.7796 219.109
L80.1144 222.08
L80.4492 220.457
L80.784 217.302
L81.1188 221.835
L81.4536 221.866
L81.7884 217.231
L82.1232 215.814
L82.458 209.381
L82.7928 212.641
L83.1276 213.428
L83.7972 219.731
L84.132 214.023
L84.4668 214.421
L84.8016 216.436
L85.1364 219.93
L85.4712 218.959
L85.806 217.062
L86.1408 217.741
L86.4756 217.877
L86.8104 218.678
L87.1452 218.34
L87.48 218.622
L87.8148 216.77
L88.4844 211.315
L88.8192 209.733
L89.154 212.007
L89.8236 207.826
L90.1584 204.421
L90.4932 203.558
L90.828 200.812
L91.1628 201.609
L92.1672 196.673
L92.502 199.035
L92.8368 195.021
L93.1716 195.103
L93.5064 187.732
L93.8412 183.584
L94.176 183.096
L95.1804 191.383
L95.5152 192.752
L95.85 193.449
L96.1848 191.673
L96.5196 193.441
L96.8544 190.682
L97.1892 194.459
L97.8588 187.894
L98.1936 192.938
L98.5284 189.225
L98.8632 188.965
L99.198 185.037
L99.5328 189.922
L99.8676 187.099
L100.202 187.915
L100.537 187.141
L100.872 191.812
L101.207 192.468
L101.542 191.676
L101.876 192.176
L102.546 201.545
L102.881 195.677
L103.216 192.325
L103.55 194.993
L103.885 194.305
L104.89 184.938
L105.224 187.584
L105.559 187.263
L105.894 191.62
L106.229 191.188
L106.564 190.237
L107.233 193.982
L107.568 190.869
L107.903 189.415
L108.238 191.478
L108.572 192.035
L108.907 195.361
L109.242 194.927
L109.577 194.837
L109.912 189.073
L110.246 190.027
L110.581 192.704
L110.916 188.929
L111.251 191.014
L111.586 188.325
L111.92 187.916
L112.59 194.558
L112.925 194.887
L113.26 191.309
L113.594 190.935
L113.929 194.069
L114.264 199.245
L114.599 201.3
L114.934 201.066
L115.268 202.298
L115.603 201.843
L115.938 206.838
L116.273 203.651
L116.608 202.87
L116.942 199.894
L117.277 205.713
L117.612 201.982
L117.947 203.364
L118.282 202.337
L118.616 207.53
L118.951 204.817
L119.286 203.231
L119.621 209.557
L119.956 209.438
L120.29 207.541
L120.625 207.248
L120.96 206.186
L121.295 210.123
L121.964 211.764
L122.299 216.613
L122.634 216.655
L122.969 217.286
L123.304 219.252
L123.638 222.587
L123.973 218.977
L124.308 220.001
L124.643 226.369
L124.978 226.554
L125.312 222.899
L125.647 222.449
L125.982 222.593
L126.652 219.58
L126.986 217.052
L127.321 215.6
L127.656 210.579
L127.991 213.665
L128.326 211.778
L128.66 208.729
L128.995 203.083
L129.33 199.723
L129.665 200.273
L130 199.01
L130.334 192.819
L130.669 189.763
L131.004 188.363
L131.339 189.244
L131.674 186.066
L132.008 186.981
L132.343 184.944
L132.678 183.655
L133.013 180.431
L133.348 174.79
L133.682 173.749
L134.017 170.112
L134.352 167.784
L134.687 164.338
L135.022 164.219
L135.356 164.934
L135.691 165.94
L136.026 164.565
L136.361 160.741
L136.696 162.93
L137.03 158.458
L137.365 158.056
L137.7 158.099
L138.035 160.351
L139.039 151.23
L139.374 152.779
L139.709 155.162
L140.044 149.167
L140.378 149.801
L140.713 150.817
L141.048 150.671
L141.718 153.963
L142.052 156.421
L142.387 156.745
L142.722 158.005
L143.057 156.478
L143.392 158.991
L143.726 157.987
L144.061 156.297
L144.396 157.008
L144.731 157.456
L145.066 152.39
L145.4 150.132
L146.07 157.127
L146.405 154.838
L146.74 157.256
L147.074 157.476
L147.744 157.176
L148.079 158.832
L148.414 156.839
L148.748 156.248
L149.083 158.319
L149.418 154.99
L149.753 153.814
L150.088 153.429
L150.422 154.328
L151.092 155.41
L151.427 157.971
L151.762 159.471
L152.096 157.857
L152.431 157.189
L152.766 157.496
L153.101 162.577
L153.436 162.569
L154.105 159.548
L154.44 161.177
L154.775 161.118
L155.11 162.453
L155.444 157.71
L156.114 155.891
L156.449 157.84
L156.784 153.376
L157.118 153.063
L157.453 153.922
L157.788 149.569
L158.123 151.666
L158.458 148.966
L158.792 147.96
L159.127 150.149
L159.462 148.624
L159.797 146.237
L160.466 149.366
L161.136 151.217
L161.471 154.758
L161.806 156.227
L162.475 161.909
L162.81 161.665
L163.145 160.192
L163.48 162.72
L163.814 161.904
L164.149 153.593
L164.484 149.77
L164.819 148.041
L165.154 145.115
L165.488 143.991
L165.823 141.963
L166.158 140.762
L166.828 144.07
L167.162 145.467
L167.497 150.325
L167.832 151.209
L168.167 152.667
L168.502 146.541
L168.836 146.819
L169.171 143.228
L169.506 144.624
L169.841 141.784
L170.176 141.376
L170.51 138.678
L170.845 141.099
L171.18 139.489
L171.515 136.258
L171.85 135.173
L172.854 146.131
L173.189 147.202
L173.524 149.961
L173.858 151.14
L174.193 151.297
L174.528 153.014
L174.863 153.664
L175.198 155.492
L175.532 152.698
L175.867 152.676
L176.202 153.336
L176.537 151.486
L176.872 151.732
L177.206 159.073
L177.876 163.051
L178.546 160.581
L179.215 164.935
L179.55 164.909
L179.885 164.621
L180.22 169.047
L181.559 178.313
L181.894 169.278
L182.228 169.617
L182.563 173.033
L182.898 169.178
L183.233 169.076
L183.568 166.967
L183.902 165.601
L184.237 167.008
L184.907 163.815
L185.242 158.488
L185.911 153.094
L186.246 153.196
L186.581 155.613
L186.916 150.62
L187.25 150.485
L187.585 148.951
L187.92 154.756
L188.255 155.138
L188.59 154.202
L188.924 155.37
L189.259 153.18
L189.594 154.838
L189.929 157.562
L190.264 161.473
L190.933 158.794
L191.268 166.631
L192.272 159.66
L192.607 162.147
L192.942 159.362
L193.277 161.136
L193.946 154.833
L194.281 155.958
L194.616 158.634
L194.951 158.65
L195.286 162.565
L195.62 163.763
L195.955 161.042
L196.29 162.954
L196.625 158.96
L196.96 157.977
L197.294 158.277
L197.629 157.084
L198.299 164.904
L198.634 165.354
L198.968 171.181
L199.303 172.44
L199.973 168.004
L200.308 170.611
L200.642 170.497
L200.977 169.943
L201.312 166.268
L201.647 165.39
L201.982 165.041
L202.316 166.606
L202.651 163.4
L202.986 162.008
L203.321 162.579
L203.656 168.383
L203.99 166.786
L204.325 167.347
L204.66 166.102
L204.995 165.915
L205.664 162.067
L205.999 162.419
L206.334 162.149
L206.669 159.238
L207.338 157.041
L207.673 161.253
L208.678 168.447
L209.012 168.946
L209.347 171.431
L209.682 171.082
L210.017 170.091
L210.352 172.675
L210.686 172.035
L211.021 166.754
L211.691 162.518
L212.026 163.153
L212.36 160.552
L212.695 159.664
L213.03 157.175
L213.365 160.438
L213.7 161.679
L214.034 164.529
L214.369 164.124
L214.704 167.235
L215.039 169.082
L215.374 168.195
L215.708 167.7
L216.043 168.177
L216.378 169.601
L216.713 165.961
L217.048 163.609
L217.382 162.86
L217.717 164.393
L218.052 168.949
L218.387 166.361
L219.056 168.608
L219.391 167.877
L220.061 164.245
L220.396 166.69
L220.73 167.065
L221.065 169.403
L221.4 169.256
L222.404 163.632
L222.739 168.27
L223.409 162.079
L223.744 164.443
L224.078 165.152
L224.413 160.158
L224.748 160.24
L225.083 161.457
L225.418 161.401
L225.752 163.291
L226.087 163.14
L226.422 156.96
L226.757 153.735
L227.092 152.155
L227.426 148.697
L227.761 147.306
L228.096 144.966
L229.435 139.73
L229.77 140.156
L230.105 143.077
L230.44 139.549
L230.774 139.6
L231.109 141.221
L231.444 141.156
L231.779 134.986
L232.448 138.476
L232.783 142.211
L233.118 141.287
L233.453 142.971
L233.788 139.894
L234.122 139.968
L234.457 139.076
L234.792 139.988
L235.127 139.865
L235.462 140.232
L235.796 139.346
L236.131 142.935
L236.466 140.286
L236.801 140.693
L237.136 145.235
L237.47 146.837
L237.805 142.348
L238.14 141.362
L238.475 136.616
L238.81 136.74
L239.144 134.402
L239.479 134.245
L239.814 133.759
L240.149 132.243
L240.484 133.675
L240.818 129.593
L241.153 127.003
L241.488 129.583
L241.823 129.728
L242.158 133.412
L242.492 135.076
L242.827 132.969
L243.162 137.826
L243.497 137.876
L243.832 143.621
L244.166 145.212
L244.501 148.444
L244.836 147.058
L245.171 151.296
L245.506 150.871
L245.84 152.554
L246.175 158.724
L246.845 157.273
L247.18 162.996
L247.514 158.427
L247.849 157.492
L248.184 155.307
L248.519 156.908
L249.523 147.506
L249.858 149.841
L250.193 150.516
L250.528 154.444
L250.862 152.106
L251.197 148.511
L251.532 153.407
L251.867 152.687
L252.202 148.438
L252.536 140.871
L252.871 140.144
L253.206 134.378
L253.541 134.075
L253.876 131.164
L254.21 131.907
L254.545 135.807
L254.88 137.03
L255.215 135.103
L255.884 136.685
L256.219 139.905
L256.554 140.001
L256.889 135.643
L257.224 136.034
L257.558 133.42
L257.893 126.595
L258.228 125.946
L258.563 129.369
L258.898 127.972
L259.232 129.01
L259.567 122.858
L259.902 120.677
L260.572 131.637
L260.906 132.448
L261.911 121.524
L262.246 122.239
L262.58 126.035
L262.915 126.886
L263.25 122.77
L263.585 123.006
L264.254 129.343
L264.589 128.502
L264.924 124.543
L265.259 128.575
L265.594 129.65
L265.928 134.497
L266.263 133.474
L266.598 134.846
L266.933 130.339
L267.268 131.26
L267.602 129.078
L267.937 128.806
L268.272 135.301
L268.607 138.803
L268.942 140.62
L269.276 140.665
L269.611 139.967
L269.946 139.709
L270.281 141.695
L270.616 141.256
L271.285 137.666
L271.62 139.166
L271.955 139.573
L272.29 139.119
L272.624 140.317
L272.959 135.402
L273.294 134.069
L273.629 134.201
L273.964 130.454
L274.633 125.455
L274.968 120.942
L275.303 118.998
L275.638 115.66
L275.972 120.103
L276.307 120.974
L276.642 125.98
L276.977 127.176
L277.312 129.348
L277.646 126.39
L277.981 124.783
L278.651 126.013
L278.986 121.408
L279.32 121.222
L279.655 120.596
L279.99 123.048
L280.325 120.507
L280.66 119.403
L280.994 117.321
L281.329 116.509
L283.338 103.279
L283.673 102.932
L284.008 106.774
L284.342 105.408
L284.677 105.503
L285.012 103.82
L285.682 105.364
L286.016 102.775
L286.351 104.23
L286.686 104.62
L287.021 104.569
L287.356 107.166
L287.69 107.757
L288.025 110.095
L288.36 108.569
L288.695 109.675
L289.03 110.201
L289.364 111.314
L290.034 115.105
L290.369 119.591
L290.704 118.636
L291.038 115.715
L291.373 115.213
L291.708 113.76
L292.043 110.648
L292.712 101.375
L293.047 99.6555
L293.382 93.5557
L293.717 92.7594
L294.052 96.8946
L294.386 93.2551
L295.056 90.8683
L295.391 92.8105
L295.726 89.8951
L296.06 88.459
L296.395 89.0547
L296.73 89.1878
L297.065 90.6113
L297.4 94.0281
L297.734 94.8426
L298.069 92.9986
L298.404 98.4726
L298.739 98.8851
L299.408 105.074
L299.743 104.871
L300.078 101.252
L300.413 101.95
L300.748 104.332
L301.082 105.399
L301.417 102.03
L301.752 102.862
L302.087 98.5899
L302.422 98.7676
L302.756 102.413
L303.091 99.1968
L303.426 104.422
L303.761 105.682
L304.096 102.491
L304.43 106.197
L304.765 104.388
L305.1 107.245
L305.77 105.325
L306.104 100.801
L306.439 100.148
L306.774 98.0514
L307.109 98.7967
L307.444 102.456
L308.113 112.341
L308.448 108.68
L308.783 106.861
L309.118 102.274
L309.452 102.4
L309.787 101.283
L310.122 99.7641
L310.457 99.8845
L311.126 98.3869
L311.461 100.931
L311.796 104.402
L312.131 111.156
L312.466 111.627
L312.8 113.186
L313.135 113.375
L313.47 112.095
L313.805 110.133
L314.14 111.352
L314.474 110.957
L314.809 107.289
L315.144 106.278
L315.479 104.618
L315.814 105.916
L316.148 107.845
L316.818 103.609
L317.153 106.892
L317.822 104.915
L318.157 99.2474
L318.492 98.7297
L318.827 101.416
L319.162 102.186
L319.496 99.4427
L319.831 95.7493
L320.166 98.3315
L320.501 96.3132
L320.836 97.6357
L321.17 92.0808
L321.505 91.9234
L321.84 98.0418
L323.179 87.742
L323.514 87.8666
L323.849 84.2373
L324.184 85.7398
L324.518 83.3903
L324.853 87.9918
L325.523 92.5438
L325.858 93.6803
L326.192 91.2717
L327.532 85.2645
L327.866 82.8219
L328.201 81.2855
L328.536 82.4146
L328.871 81.6571
L329.206 85.8123
L329.54 86.4201
L329.875 84.4398
L330.21 86.171
L330.545 86.5736
L330.88 83.5992
L331.214 84.4251
L331.549 82.0204
L331.884 83.7382
L332.219 87.3823
L332.554 88.4955
L332.888 86.3253
L333.558 87.3462
L333.893 90.0419
L334.228 90.8562
L334.562 83.7171
L334.897 84.8622
L335.232 84.5359
L335.902 73.6566
L336.236 73.7495
L336.571 77.2188
L336.906 72.2222
L337.241 73.1443
L337.576 73.3111
L337.91 77.6476
L338.245 78.1914
L338.58 74.4804
L338.915 74.6549
L339.25 72.6528
L339.584 71.3404
L339.919 67.0707
L340.254 66.2992
L340.589 71.074
L341.258 64.4796
L341.593 69.7589
L341.928 68.6389
L342.263 68.2836
L342.598 65.1627
L342.932 65.8646
L343.602 68.7043
L343.937 63.0254
L344.606 64.5637
L344.941 56.6173
L345.276 59.4755
L345.611 58.3951
L345.946 55.5728
L346.28 57.2025
L346.615 56.4853
L346.95 55.3949
L347.285 52.5872
L347.62 55.9928
L347.954 55.739
L348.289 54.5466
L348.624 50.8577
L348.959 52.1649
L349.294 55.7148
L349.628 55.7869
L350.298 51.7424
L350.633 48.946
L350.968 47.1753
L351.302 52.2542
L351.637 54.3958
L351.972 53.5241
L352.307 49.2916
L352.642 47.5958
L352.976 47.563
L353.311 48.5266
L353.646 54.7454
L354.316 48.9453
L354.65 48.0002
L354.985 49.3999
L355.32 48.7354
L355.655 49.1057
L355.99 54.5999
L356.659 45.0199
L356.994 47.0137
L357.329 48.1057
L357.664 50.4175
L357.998 47.6287
L358.333 49.2727
L358.668 54.1769
L359.003 53.78
L359.338 55.3182
L359.672 55.4047
L360.007 53.4183
L360.342 52.1413
L360.677 53.8965
L361.012 54.8498
L361.346 52.4011
L361.681 49.0316
L362.016 48.819
L362.351 44.1206
L362.686 43.9108
L363.355 50.9303
L363.69 51.4769
L364.025 48.5054
L364.36 42.1744
L364.694 38.3574
L365.029 37.8013
L365.364 38.4851
L365.699 40.3177
L366.034 39.072
L366.368 40.6645
L366.703 37.7418
L367.708 48.9481
L368.042 50.5616
L368.377 49.6747
L369.047 45.8079
L369.382 45.0033
L369.716 48.7066
L370.051 49.5442
L370.386 44.7414
L370.721 42.7517
L371.056 45.7879
L371.39 46.8736
L372.06 54.8417
L372.395 56.5295
L372.73 60.9756
L373.399 66.6565
L373.734 65.9892
L374.069 74.3272
L374.738 68.8821
L375.073 68.5221
L375.408 65.0894
L375.743 67.3119
L376.078 65.0138
L376.412 67.5319
L376.747 72.5684
L377.082 75.3633
L377.417 71.3752
L377.752 73.6822
L378.086 73.6115
L378.421 72.1211
L378.756 73.5694
L379.091 77.4573
L379.426 78.1944
L380.095 81.9325
L380.43 82.0239
L380.765 85.2272
L381.1 83.615
L381.434 81.4545
L381.769 76.6327
L382.104 75.1817
L382.439 71.7808
L383.108 74.5344
L383.443 71.2935
L383.778 71.0898
L384.113 72.5145
L384.448 75.0931
L384.782 74.3949
L385.117 71.6672
L385.452 70.757
L385.787 73.3746
L386.122 71.7118
L386.456 69.2855
L386.791 71.0749
L387.126 75.5744
L387.461 72.6129
L387.796 75.9942
L388.13 74.5957
L388.465 71.5128
L388.465 71.5128" style="fill:none;stroke:#0000ff;stroke-linecap:square;"/>
   </g>
   <g id="patch_4">
    <path d="
M54 252
L54 28.8" style="fill:none;stroke:#000000;stroke-linecap:square;stroke-linejoin:miter;"/>
   </g>
   <g id="patch_5">
    <path d="
M54 28.8
L388.8 28.8" style="fill:none;stroke:#000000;stroke-linecap:square;stroke-linejoin:miter;"/>
   </g>
   <g id="patch_6">
    <path d="
M388.8 252
L388.8 28.8" style="fill:none;stroke:#000000;stroke-linecap:square;stroke-linejoin:miter;"/>
   </g>
   <g id="patch_7">
    <path d="
M54 252
L388.8 252" style="fill:none;stroke:#000000;stroke-linecap:square;stroke-linejoin:miter;"/>
   </g>
   <g id="matplotlib.axis_1">
    <g id="xtick_1">
     <g id="line2d_2">
      <defs>
       <path d="
M0 0
L0 -4" id="mc7db9fdffb" style="stroke:#000000;stroke-width:0.5;"/>
      </defs>
      <g>
       <use style="stroke:#000000;stroke-width:0.5;" x="54.0" xlink:href="#mc7db9fdffb" y="252.0"/>
      </g>
     </g>
     <g id="line2d_3">
      <defs>
       <path d="
M0 0
L0 4" id="m5a7d422ac3" style="stroke:#000000;stroke-width:0.5;"/>
      </defs>
      <g>
       <use style="stroke:#000000;stroke-width:0.5;" x="54.0" xlink:href="#m5a7d422ac3" y="28.8"/>
      </g>
     </g>
     <g id="text_1">
      <!-- one -->
      <defs>
       <path d="
M30.6094 48.3906
Q23.3906 48.3906 19.1875 42.75
Q14.9844 37.1094 14.9844 27.2969
Q14.9844 17.4844 19.1562 11.8438
Q23.3438 6.20312 30.6094 6.20312
Q37.7969 6.20312 41.9844 11.8594
Q46.1875 17.5312 46.1875 27.2969
Q46.1875 37.0156 41.9844 42.7031
Q37.7969 48.3906 30.6094 48.3906
M30.6094 56
Q42.3281 56 49.0156 48.375
Q55.7188 40.7656 55.7188 27.2969
Q55.7188 13.875 49.0156 6.21875
Q42.3281 -1.42188 30.6094 -1.42188
Q18.8438 -1.42188 12.1719 6.21875
Q5.51562 13.875 5.51562 27.2969
Q5.51562 40.7656 12.1719 48.375
Q18.8438 56 30.6094 56" id="BitstreamVeraSans-Roman-6f"/>
       <path d="
M54.8906 33.0156
L54.8906 0
L45.9062 0
L45.9062 32.7188
Q45.9062 40.4844 42.875 44.3281
Q39.8438 48.1875 33.7969 48.1875
Q26.5156 48.1875 22.3125 43.5469
Q18.1094 38.9219 18.1094 30.9062
L18.1094 0
L9.07812 0
L9.07812 54.6875
L18.1094 54.6875
L18.1094 46.1875
Q21.3438 51.125 25.7031 53.5625
Q30.0781 56 35.7969 56
Q45.2188 56 50.0469 50.1719
Q54.8906 44.3438 54.8906 33.0156" id="BitstreamVeraSans-Roman-6e"/>
       <path d="
M56.2031 29.5938
L56.2031 25.2031
L14.8906 25.2031
Q15.4844 15.9219 20.4844 11.0625
Q25.4844 6.20312 34.4219 6.20312
Q39.5938 6.20312 44.4531 7.46875
Q49.3125 8.73438 54.1094 11.2812
L54.1094 2.78125
Q49.2656 0.734375 44.1875 -0.34375
Q39.1094 -1.42188 33.8906 -1.42188
Q20.7969 -1.42188 13.1562 6.1875
Q5.51562 13.8125 5.51562 26.8125
Q5.51562 40.2344 12.7656 48.1094
Q20.0156 56 32.3281 56
Q43.3594 56 49.7812 48.8906
Q56.2031 41.7969 56.2031 29.5938
M47.2188 32.2344
Q47.125 39.5938 43.0938 43.9844
Q39.0625 48.3906 32.4219 48.3906
Q24.9062 48.3906 20.3906 44.1406
Q15.875 39.8906 15.1875 32.1719
z
" id="BitstreamVeraSans-Roman-65"/>
      </defs>
      <g transform="translate(48.8280195361 268.78066894)rotate(-30.0)scale(0.0833 -0.0833)">
       <use xlink:href="#BitstreamVeraSans-Roman-6f"/>
       <use x="61.181640625" xlink:href="#BitstreamVeraSans-Roman-6e"/>
       <use x="124.560546875" xlink:href="#BitstreamVeraSans-Roman-65"/>
      </g>
     </g>
    </g>
    <g id="xtick_2">
     <g id="line2d_4">
      <g>
       <use style="stroke:#000000;stroke-width:0.5;" x="137.7" xlink:href="#mc7db9fdffb" y="252.0"/>
      </g>
     </g>
     <g id="line2d_5">
      <g>
       <use style="stroke:#000000;stroke-width:0.5;" x="137.7" xlink:href="#m5a7d422ac3" y="28.8"/>
      </g>
     </g>
     <g id="text_2">
      <!-- two -->
      <defs>
       <path d="
M4.20312 54.6875
L13.1875 54.6875
L24.4219 12.0156
L35.5938 54.6875
L46.1875 54.6875
L57.4219 12.0156
L68.6094 54.6875
L77.5938 54.6875
L63.2812 0
L52.6875 0
L40.9219 44.8281
L29.1094 0
L18.5 0
z
" id="BitstreamVeraSans-Roman-77"/>
       <path d="
M18.3125 70.2188
L18.3125 54.6875
L36.8125 54.6875
L36.8125 47.7031
L18.3125 47.7031
L18.3125 18.0156
Q18.3125 11.3281 20.1406 9.42188
Q21.9688 7.51562 27.5938 7.51562
L36.8125 7.51562
L36.8125 0
L27.5938 0
Q17.1875 0 13.2344 3.875
Q9.28125 7.76562 9.28125 18.0156
L9.28125 47.7031
L2.6875 47.7031
L2.6875 54.6875
L9.28125 54.6875
L9.28125 70.2188
z
" id="BitstreamVeraSans-Roman-74"/>
      </defs>
      <g transform="translate(132.572543391 268.729257221)rotate(-30.0)scale(0.0833 -0.0833)">
       <use xlink:href="#BitstreamVeraSans-Roman-74"/>
       <use x="39.208984375" xlink:href="#BitstreamVeraSans-Roman-77"/>
       <use x="120.99609375" xlink:href="#BitstreamVeraSans-Roman-6f"/>
      </g>
     </g>
    </g>
    <g id="xtick_3">
     <g id="line2d_6">
      <g>
       <use style="stroke:#000000;stroke-width:0.5;" x="221.4" xlink:href="#mc7db9fdffb" y="252.0"/>
      </g>
     </g>
     <g id="line2d_7">
      <g>
       <use style="stroke:#000000;stroke-width:0.5;" x="221.4" xlink:href="#m5a7d422ac3" y="28.8"/>
      </g>
     </g>
     <g id="text_3">
      <!-- three -->
      <defs>
       <path d="
M54.8906 33.0156
L54.8906 0
L45.9062 0
L45.9062 32.7188
Q45.9062 40.4844 42.875 44.3281
Q39.8438 48.1875 33.7969 48.1875
Q26.5156 48.1875 22.3125 43.5469
Q18.1094 38.9219 18.1094 30.9062
L18.1094 0
L9.07812 0
L9.07812 75.9844
L18.1094 75.9844
L18.1094 46.1875
Q21.3438 51.125 25.7031 53.5625
Q30.0781 56 35.7969 56
Q45.2188 56 50.0469 50.1719
Q54.8906 44.3438 54.8906 33.0156" id="BitstreamVeraSans-Roman-68"/>
       <path d="
M41.1094 46.2969
Q39.5938 47.1719 37.8125 47.5781
Q36.0312 48 33.8906 48
Q26.2656 48 22.1875 43.0469
Q18.1094 38.0938 18.1094 28.8125
L18.1094 0
L9.07812 0
L9.07812 54.6875
L18.1094 54.6875
L18.1094 46.1875
Q20.9531 51.1719 25.4844 53.5781
Q30.0312 56 36.5312 56
Q37.4531 56 38.5781 55.875
Q39.7031 55.7656 41.0625 55.5156
z
" id="BitstreamVeraSans-Roman-72"/>
      </defs>
      <g transform="translate(213.297899036 272.164080659)rotate(-30.0)scale(0.0833 -0.0833)">
       <use xlink:href="#BitstreamVeraSans-Roman-74"/>
       <use x="39.208984375" xlink:href="#BitstreamVeraSans-Roman-68"/>
       <use x="102.587890625" xlink:href="#BitstreamVeraSans-Roman-72"/>
       <use x="141.451171875" xlink:href="#BitstreamVeraSans-Roman-65"/>
       <use x="202.974609375" xlink:href="#BitstreamVeraSans-Roman-65"/>
      </g>
     </g>
    </g>
    <g id="xtick_4">
     <g id="line2d_8">
      <g>
       <use style="stroke:#000000;stroke-width:0.5;" x="305.1" xlink:href="#mc7db9fdffb" y="252.0"/>
      </g>
     </g>
     <g id="line2d_9">
      <g>
       <use style="stroke:#000000;stroke-width:0.5;" x="305.1" xlink:href="#m5a7d422ac3" y="28.8"/>
      </g>
     </g>
     <g id="text_4">
      <!-- four -->
      <defs>
       <path d="
M37.1094 75.9844
L37.1094 68.5
L28.5156 68.5
Q23.6875 68.5 21.7969 66.5469
Q19.9219 64.5938 19.9219 59.5156
L19.9219 54.6875
L34.7188 54.6875
L34.7188 47.7031
L19.9219 47.7031
L19.9219 0
L10.8906 0
L10.8906 47.7031
L2.29688 47.7031
L2.29688 54.6875
L10.8906 54.6875
L10.8906 58.5
Q10.8906 67.625 15.1406 71.7969
Q19.3906 75.9844 28.6094 75.9844
z
" id="BitstreamVeraSans-Roman-66"/>
       <path d="
M8.5 21.5781
L8.5 54.6875
L17.4844 54.6875
L17.4844 21.9219
Q17.4844 14.1562 20.5 10.2656
Q23.5312 6.39062 29.5938 6.39062
Q36.8594 6.39062 41.0781 11.0312
Q45.3125 15.6719 45.3125 23.6875
L45.3125 54.6875
L54.2969 54.6875
L54.2969 0
L45.3125 0
L45.3125 8.40625
Q42.0469 3.42188 37.7188 1
Q33.4062 -1.42188 27.6875 -1.42188
Q18.2656 -1.42188 13.375 4.4375
Q8.5 10.2969 8.5 21.5781" id="BitstreamVeraSans-Roman-75"/>
      </defs>
      <g transform="translate(299.086575046 269.752285346)rotate(-30.0)scale(0.0833 -0.0833)">
       <use xlink:href="#BitstreamVeraSans-Roman-66"/>
       <use x="35.205078125" xlink:href="#BitstreamVeraSans-Roman-6f"/>
       <use x="96.38671875" xlink:href="#BitstreamVeraSans-Roman-75"/>
       <use x="159.765625" xlink:href="#BitstreamVeraSans-Roman-72"/>
      </g>
     </g>
    </g>
    <g id="xtick_5">
     <g id="line2d_10">
      <g>
       <use style="stroke:#000000;stroke-width:0.5;" x="388.8" xlink:href="#mc7db9fdffb" y="252.0"/>
      </g>
     </g>
     <g id="line2d_11">
      <g>
       <use style="stroke:#000000;stroke-width:0.5;" x="388.8" xlink:href="#m5a7d422ac3" y="28.8"/>
      </g>
     </g>
     <g id="text_5">
      <!-- five -->
      <defs>
       <path d="
M9.42188 54.6875
L18.4062 54.6875
L18.4062 0
L9.42188 0
z

M9.42188 75.9844
L18.4062 75.9844
L18.4062 64.5938
L9.42188 64.5938
z
" id="BitstreamVeraSans-Roman-69"/>
       <path d="
M2.98438 54.6875
L12.5 54.6875
L29.5938 8.79688
L46.6875 54.6875
L56.2031 54.6875
L35.6875 0
L23.4844 0
z
" id="BitstreamVeraSans-Roman-76"/>
      </defs>
      <g transform="translate(383.598149102 268.815160346)rotate(-30.0)scale(0.0833 -0.0833)">
       <use xlink:href="#BitstreamVeraSans-Roman-66"/>
       <use x="35.205078125" xlink:href="#BitstreamVeraSans-Roman-69"/>
       <use x="62.98828125" xlink:href="#BitstreamVeraSans-Roman-76"/>
       <use x="122.16796875" xlink:href="#BitstreamVeraSans-Roman-65"/>
      </g>
     </g>
    </g>
    <g id="text_6">
     <!-- Stages -->
     <defs>
      <path d="
M53.5156 70.5156
L53.5156 60.8906
Q47.9062 63.5781 42.9219 64.8906
Q37.9375 66.2188 33.2969 66.2188
Q25.25 66.2188 20.875 63.0938
Q16.5 59.9688 16.5 54.2031
Q16.5 49.3594 19.4062 46.8906
Q22.3125 44.4375 30.4219 42.9219
L36.375 41.7031
Q47.4062 39.5938 52.6562 34.2969
Q57.9062 29 57.9062 20.125
Q57.9062 9.51562 50.7969 4.04688
Q43.7031 -1.42188 29.9844 -1.42188
Q24.8125 -1.42188 18.9688 -0.25
Q13.1406 0.921875 6.89062 3.21875
L6.89062 13.375
Q12.8906 10.0156 18.6562 8.29688
Q24.4219 6.59375 29.9844 6.59375
Q38.4219 6.59375 43.0156 9.90625
Q47.6094 13.2344 47.6094 19.3906
Q47.6094 24.75 44.3125 27.7812
Q41.0156 30.8125 33.5 32.3281
L27.4844 33.5
Q16.4531 35.6875 11.5156 40.375
Q6.59375 45.0625 6.59375 53.4219
Q6.59375 63.0938 13.4062 68.6562
Q20.2188 74.2188 32.1719 74.2188
Q37.3125 74.2188 42.625 73.2812
Q47.9531 72.3594 53.5156 70.5156" id="BitstreamVeraSans-Roman-53"/>
      <path d="
M34.2812 27.4844
Q23.3906 27.4844 19.1875 25
Q14.9844 22.5156 14.9844 16.5
Q14.9844 11.7188 18.1406 8.90625
Q21.2969 6.10938 26.7031 6.10938
Q34.1875 6.10938 38.7031 11.4062
Q43.2188 16.7031 43.2188 25.4844
L43.2188 27.4844
z

M52.2031 31.2031
L52.2031 0
L43.2188 0
L43.2188 8.29688
Q40.1406 3.32812 35.5469 0.953125
Q30.9531 -1.42188 24.3125 -1.42188
Q15.9219 -1.42188 10.9531 3.29688
Q6 8.01562 6 15.9219
Q6 25.1406 12.1719 29.8281
Q18.3594 34.5156 30.6094 34.5156
L43.2188 34.5156
L43.2188 35.4062
Q43.2188 41.6094 39.1406 45
Q35.0625 48.3906 27.6875 48.3906
Q23 48.3906 18.5469 47.2656
Q14.1094 46.1406 10.0156 43.8906
L10.0156 52.2031
Q14.9375 54.1094 19.5781 55.0469
Q24.2188 56 28.6094 56
Q40.4844 56 46.3438 49.8438
Q52.2031 43.7031 52.2031 31.2031" id="BitstreamVeraSans-Roman-61"/>
      <path d="
M44.2812 53.0781
L44.2812 44.5781
Q40.4844 46.5312 36.375 47.5
Q32.2812 48.4844 27.875 48.4844
Q21.1875 48.4844 17.8438 46.4375
Q14.5 44.3906 14.5 40.2812
Q14.5 37.1562 16.8906 35.375
Q19.2812 33.5938 26.5156 31.9844
L29.5938 31.2969
Q39.1562 29.25 43.1875 25.5156
Q47.2188 21.7812 47.2188 15.0938
Q47.2188 7.46875 41.1875 3.01562
Q35.1562 -1.42188 24.6094 -1.42188
Q20.2188 -1.42188 15.4531 -0.5625
Q10.6875 0.296875 5.42188 2
L5.42188 11.2812
Q10.4062 8.6875 15.2344 7.39062
Q20.0625 6.10938 24.8125 6.10938
Q31.1562 6.10938 34.5625 8.28125
Q37.9844 10.4531 37.9844 14.4062
Q37.9844 18.0625 35.5156 20.0156
Q33.0625 21.9688 24.7031 23.7812
L21.5781 24.5156
Q13.2344 26.2656 9.51562 29.9062
Q5.8125 33.5469 5.8125 39.8906
Q5.8125 47.6094 11.2812 51.7969
Q16.75 56 26.8125 56
Q31.7812 56 36.1719 55.2656
Q40.5781 54.5469 44.2812 53.0781" id="BitstreamVeraSans-Roman-73"/>
      <path d="
M45.4062 27.9844
Q45.4062 37.75 41.375 43.1094
Q37.3594 48.4844 30.0781 48.4844
Q22.8594 48.4844 18.8281 43.1094
Q14.7969 37.75 14.7969 27.9844
Q14.7969 18.2656 18.8281 12.8906
Q22.8594 7.51562 30.0781 7.51562
Q37.3594 7.51562 41.375 12.8906
Q45.4062 18.2656 45.4062 27.9844
M54.3906 6.78125
Q54.3906 -7.17188 48.1875 -13.9844
Q42 -20.7969 29.2031 -20.7969
Q24.4688 -20.7969 20.2656 -20.0938
Q16.0625 -19.3906 12.1094 -17.9219
L12.1094 -9.1875
Q16.0625 -11.3281 19.9219 -12.3438
Q23.7812 -13.375 27.7812 -13.375
Q36.625 -13.375 41.0156 -8.76562
Q45.4062 -4.15625 45.4062 5.17188
L45.4062 9.625
Q42.625 4.78125 38.2812 2.39062
Q33.9375 0 27.875 0
Q17.8281 0 11.6719 7.65625
Q5.51562 15.3281 5.51562 27.9844
Q5.51562 40.6719 11.6719 48.3281
Q17.8281 56 27.875 56
Q33.9375 56 38.2812 53.6094
Q42.625 51.2188 45.4062 46.3906
L45.4062 54.6875
L54.3906 54.6875
z
" id="BitstreamVeraSans-Roman-67"/>
     </defs>
     <g transform="translate(204.91953125 286.262802977)scale(0.1 -0.1)">
      <use xlink:href="#BitstreamVeraSans-Roman-53"/>
      <use x="63.4765625" xlink:href="#BitstreamVeraSans-Roman-74"/>
      <use x="102.685546875" xlink:href="#BitstreamVeraSans-Roman-61"/>
      <use x="163.96484375" xlink:href="#BitstreamVeraSans-Roman-67"/>
      <use x="227.44140625" xlink:href="#BitstreamVeraSans-Roman-65"/>
      <use x="288.96484375" xlink:href="#BitstreamVeraSans-Roman-73"/>
     </g>
    </g>
   </g>
   <g id="matplotlib.axis_2">
    <g id="ytick_1">
     <g id="line2d_12">
      <defs>
       <path d="
M0 0
L4 0" id="md7965d1ba0" style="stroke:#000000;stroke-width:0.5;"/>
      </defs>
      <g>
       <use style="stroke:#000000;stroke-width:0.5;" x="54.0" xlink:href="#md7965d1ba0" y="252.0"/>
      </g>
     </g>
     <g id="line2d_13">
      <defs>
       <path d="
M0 0
L-4 0" id="md9a1c1a7cd" style="stroke:#000000;stroke-width:0.5;"/>
      </defs>
      <g>
       <use style="stroke:#000000;stroke-width:0.5;" x="388.8" xlink:href="#md9a1c1a7cd" y="252.0"/>
      </g>
     </g>
     <g id="text_7">
      <!-- −20 -->
      <defs>
       <path d="
M19.1875 8.29688
L53.6094 8.29688
L53.6094 0
L7.32812 0
L7.32812 8.29688
Q12.9375 14.1094 22.625 23.8906
Q32.3281 33.6875 34.8125 36.5312
Q39.5469 41.8438 41.4219 45.5312
Q43.3125 49.2188 43.3125 52.7812
Q43.3125 58.5938 39.2344 62.25
Q35.1562 65.9219 28.6094 65.9219
Q23.9688 65.9219 18.8125 64.3125
Q13.6719 62.7031 7.8125 59.4219
L7.8125 69.3906
Q13.7656 71.7812 18.9375 73
Q24.125 74.2188 28.4219 74.2188
Q39.75 74.2188 46.4844 68.5469
Q53.2188 62.8906 53.2188 53.4219
Q53.2188 48.9219 51.5312 44.8906
Q49.8594 40.875 45.4062 35.4062
Q44.1875 33.9844 37.6406 27.2188
Q31.1094 20.4531 19.1875 8.29688" id="BitstreamVeraSans-Roman-32"/>
       <path d="
M10.5938 35.5
L73.1875 35.5
L73.1875 27.2031
L10.5938 27.2031
z
" id="BitstreamVeraSans-Roman-2212"/>
       <path d="
M31.7812 66.4062
Q24.1719 66.4062 20.3281 58.9062
Q16.5 51.4219 16.5 36.375
Q16.5 21.3906 20.3281 13.8906
Q24.1719 6.39062 31.7812 6.39062
Q39.4531 6.39062 43.2812 13.8906
Q47.125 21.3906 47.125 36.375
Q47.125 51.4219 43.2812 58.9062
Q39.4531 66.4062 31.7812 66.4062
M31.7812 74.2188
Q44.0469 74.2188 50.5156 64.5156
Q56.9844 54.8281 56.9844 36.375
Q56.9844 17.9688 50.5156 8.26562
Q44.0469 -1.42188 31.7812 -1.42188
Q19.5312 -1.42188 13.0625 8.26562
Q6.59375 17.9688 6.59375 36.375
Q6.59375 54.8281 13.0625 64.5156
Q19.5312 74.2188 31.7812 74.2188" id="BitstreamVeraSans-Roman-30"/>
      </defs>
      <g transform="translate(30.61875 254.759375)scale(0.1 -0.1)">
       <use xlink:href="#BitstreamVeraSans-Roman-2212"/>
       <use x="83.7890625" xlink:href="#BitstreamVeraSans-Roman-32"/>
       <use x="147.412109375" xlink:href="#BitstreamVeraSans-Roman-30"/>
      </g>
     </g>
    </g>
    <g id="ytick_2">
     <g id="line2d_14">
      <g>
       <use style="stroke:#000000;stroke-width:0.5;" x="54.0" xlink:href="#md7965d1ba0" y="224.1"/>
      </g>
     </g>
     <g id="line2d_15">
      <g>
       <use style="stroke:#000000;stroke-width:0.5;" x="388.8" xlink:href="#md9a1c1a7cd" y="224.1"/>
      </g>
     </g>
     <g id="text_8">
      <!-- −10 -->
      <defs>
       <path d="
M12.4062 8.29688
L28.5156 8.29688
L28.5156 63.9219
L10.9844 60.4062
L10.9844 69.3906
L28.4219 72.9062
L38.2812 72.9062
L38.2812 8.29688
L54.3906 8.29688
L54.3906 0
L12.4062 0
z
" id="BitstreamVeraSans-Roman-31"/>
      </defs>
      <g transform="translate(30.61875 226.859375)scale(0.1 -0.1)">
       <use xlink:href="#BitstreamVeraSans-Roman-2212"/>
       <use x="83.7890625" xlink:href="#BitstreamVeraSans-Roman-31"/>
       <use x="147.412109375" xlink:href="#BitstreamVeraSans-Roman-30"/>
      </g>
     </g>
    </g>
    <g id="ytick_3">
     <g id="line2d_16">
      <g>
       <use style="stroke:#000000;stroke-width:0.5;" x="54.0" xlink:href="#md7965d1ba0" y="196.2"/>
      </g>
     </g>
     <g id="line2d_17">
      <g>
       <use style="stroke:#000000;stroke-width:0.5;" x="388.8" xlink:href="#md9a1c1a7cd" y="196.2"/>
      </g>
     </g>
     <g id="text_9">
      <!-- 0 -->
      <g transform="translate(44.9609375 198.959375)scale(0.1 -0.1)">
       <use xlink:href="#BitstreamVeraSans-Roman-30"/>
      </g>
     </g>
    </g>
    <g id="ytick_4">
     <g id="line2d_18">
      <g>
       <use style="stroke:#000000;stroke-width:0.5;" x="54.0" xlink:href="#md7965d1ba0" y="168.3"/>
      </g>
     </g>
     <g id="line2d_19">
      <g>
       <use style="stroke:#000000;stroke-width:0.5;" x="388.8" xlink:href="#md9a1c1a7cd" y="168.3"/>
      </g>
     </g>
     <g id="text_10">
      <!-- 10 -->
      <g transform="translate(39.0375 171.059375)scale(0.1 -0.1)">
       <use xlink:href="#BitstreamVeraSans-Roman-31"/>
       <use x="63.623046875" xlink:href="#BitstreamVeraSans-Roman-30"/>
      </g>
     </g>
    </g>
    <g id="ytick_5">
     <g id="line2d_20">
      <g>
       <use style="stroke:#000000;stroke-width:0.5;" x="54.0" xlink:href="#md7965d1ba0" y="140.4"/>
      </g>
     </g>
     <g id="line2d_21">
      <g>
       <use style="stroke:#000000;stroke-width:0.5;" x="388.8" xlink:href="#md9a1c1a7cd" y="140.4"/>
      </g>
     </g>
     <g id="text_11">
      <!-- 20 -->
      <g transform="translate(38.671875 143.159375)scale(0.1 -0.1)">
       <use xlink:href="#BitstreamVeraSans-Roman-32"/>
       <use x="63.623046875" xlink:href="#BitstreamVeraSans-Roman-30"/>
      </g>
     </g>
    </g>
    <g id="ytick_6">
     <g id="line2d_22">
      <g>
       <use style="stroke:#000000;stroke-width:0.5;" x="54.0" xlink:href="#md7965d1ba0" y="112.5"/>
      </g>
     </g>
     <g id="line2d_23">
      <g>
       <use style="stroke:#000000;stroke-width:0.5;" x="388.8" xlink:href="#md9a1c1a7cd" y="112.5"/>
      </g>
     </g>
     <g id="text_12">
      <!-- 30 -->
      <defs>
       <path d="
M40.5781 39.3125
Q47.6562 37.7969 51.625 33
Q55.6094 28.2188 55.6094 21.1875
Q55.6094 10.4062 48.1875 4.48438
Q40.7656 -1.42188 27.0938 -1.42188
Q22.5156 -1.42188 17.6562 -0.515625
Q12.7969 0.390625 7.625 2.20312
L7.625 11.7188
Q11.7188 9.32812 16.5938 8.10938
Q21.4844 6.89062 26.8125 6.89062
Q36.0781 6.89062 40.9375 10.5469
Q45.7969 14.2031 45.7969 21.1875
Q45.7969 27.6406 41.2812 31.2656
Q36.7656 34.9062 28.7188 34.9062
L20.2188 34.9062
L20.2188 43.0156
L29.1094 43.0156
Q36.375 43.0156 40.2344 45.9219
Q44.0938 48.8281 44.0938 54.2969
Q44.0938 59.9062 40.1094 62.9062
Q36.1406 65.9219 28.7188 65.9219
Q24.6562 65.9219 20.0156 65.0312
Q15.375 64.1562 9.8125 62.3125
L9.8125 71.0938
Q15.4375 72.6562 20.3438 73.4375
Q25.25 74.2188 29.5938 74.2188
Q40.8281 74.2188 47.3594 69.1094
Q53.9062 64.0156 53.9062 55.3281
Q53.9062 49.2656 50.4375 45.0938
Q46.9688 40.9219 40.5781 39.3125" id="BitstreamVeraSans-Roman-33"/>
      </defs>
      <g transform="translate(38.7015625 115.259375)scale(0.1 -0.1)">
       <use xlink:href="#BitstreamVeraSans-Roman-33"/>
       <use x="63.623046875" xlink:href="#BitstreamVeraSans-Roman-30"/>
      </g>
     </g>
    </g>
    <g id="ytick_7">
     <g id="line2d_24">
      <g>
       <use style="stroke:#000000;stroke-width:0.5;" x="54.0" xlink:href="#md7965d1ba0" y="84.6"/>
      </g>
     </g>
     <g id="line2d_25">
      <g>
       <use style="stroke:#000000;stroke-width:0.5;" x="388.8" xlink:href="#md9a1c1a7cd" y="84.6"/>
      </g>
     </g>
     <g id="text_13">
      <!-- 40 -->
      <defs>
       <path d="
M37.7969 64.3125
L12.8906 25.3906
L37.7969 25.3906
z

M35.2031 72.9062
L47.6094 72.9062
L47.6094 25.3906
L58.0156 25.3906
L58.0156 17.1875
L47.6094 17.1875
L47.6094 0
L37.7969 0
L37.7969 17.1875
L4.89062 17.1875
L4.89062 26.7031
z
" id="BitstreamVeraSans-Roman-34"/>
      </defs>
      <g transform="translate(38.428125 87.359375)scale(0.1 -0.1)">
       <use xlink:href="#BitstreamVeraSans-Roman-34"/>
       <use x="63.623046875" xlink:href="#BitstreamVeraSans-Roman-30"/>
      </g>
     </g>
    </g>
    <g id="ytick_8">
     <g id="line2d_26">
      <g>
       <use style="stroke:#000000;stroke-width:0.5;" x="54.0" xlink:href="#md7965d1ba0" y="56.7"/>
      </g>
     </g>
     <g id="line2d_27">
      <g>
       <use style="stroke:#000000;stroke-width:0.5;" x="388.8" xlink:href="#md9a1c1a7cd" y="56.7"/>
      </g>
     </g>
     <g id="text_14">
      <!-- 50 -->
      <defs>
       <path d="
M10.7969 72.9062
L49.5156 72.9062
L49.5156 64.5938
L19.8281 64.5938
L19.8281 46.7344
Q21.9688 47.4688 24.1094 47.8281
Q26.2656 48.1875 28.4219 48.1875
Q40.625 48.1875 47.75 41.5
Q54.8906 34.8125 54.8906 23.3906
Q54.8906 11.625 47.5625 5.09375
Q40.2344 -1.42188 26.9062 -1.42188
Q22.3125 -1.42188 17.5469 -0.640625
Q12.7969 0.140625 7.71875 1.70312
L7.71875 11.625
Q12.1094 9.23438 16.7969 8.0625
Q21.4844 6.89062 26.7031 6.89062
Q35.1562 6.89062 40.0781 11.3281
Q45.0156 15.7656 45.0156 23.3906
Q45.0156 31 40.0781 35.4375
Q35.1562 39.8906 26.7031 39.8906
Q22.75 39.8906 18.8125 39.0156
Q14.8906 38.1406 10.7969 36.2812
z
" id="BitstreamVeraSans-Roman-35"/>
      </defs>
      <g transform="translate(38.7109375 59.459375)scale(0.1 -0.1)">
       <use xlink:href="#BitstreamVeraSans-Roman-35"/>
       <use x="63.623046875" xlink:href="#BitstreamVeraSans-Roman-30"/>
      </g>
     </g>
    </g>
    <g id="ytick_9">
     <g id="line2d_28">
      <g>
       <use style="stroke:#000000;stroke-width:0.5;" x="54.0" xlink:href="#md7965d1ba0" y="28.8"/>
      </g>
     </g>
     <g id="line2d_29">
      <g>
       <use style="stroke:#000000;stroke-width:0.5;" x="388.8" xlink:href="#md9a1c1a7cd" y="28.8"/>
      </g>
     </g>
     <g id="text_15">
      <!-- 60 -->
      <defs>
       <path d="
M33.0156 40.375
Q26.375 40.375 22.4844 35.8281
Q18.6094 31.2969 18.6094 23.3906
Q18.6094 15.5312 22.4844 10.9531
Q26.375 6.39062 33.0156 6.39062
Q39.6562 6.39062 43.5312 10.9531
Q47.4062 15.5312 47.4062 23.3906
Q47.4062 31.2969 43.5312 35.8281
Q39.6562 40.375 33.0156 40.375
M52.5938 71.2969
L52.5938 62.3125
Q48.875 64.0625 45.0938 64.9844
Q41.3125 65.9219 37.5938 65.9219
Q27.8281 65.9219 22.6719 59.3281
Q17.5312 52.7344 16.7969 39.4062
Q19.6719 43.6562 24.0156 45.9219
Q28.375 48.1875 33.5938 48.1875
Q44.5781 48.1875 50.9531 41.5156
Q57.3281 34.8594 57.3281 23.3906
Q57.3281 12.1562 50.6875 5.35938
Q44.0469 -1.42188 33.0156 -1.42188
Q20.3594 -1.42188 13.6719 8.26562
Q6.98438 17.9688 6.98438 36.375
Q6.98438 53.6562 15.1875 63.9375
Q23.3906 74.2188 37.2031 74.2188
Q40.9219 74.2188 44.7031 73.4844
Q48.4844 72.75 52.5938 71.2969" id="BitstreamVeraSans-Roman-36"/>
      </defs>
      <g transform="translate(38.6375 31.559375)scale(0.1 -0.1)">
       <use xlink:href="#BitstreamVeraSans-Roman-36"/>
       <use x="63.623046875" xlink:href="#BitstreamVeraSans-Roman-30"/>
      </g>
     </g>
    </g>
   </g>
   <g id="text_16">
    <!-- Center -->
    <defs>
     <path d="
M51.3125 33.8906
L51.3125 0
L42.2812 0
L42.2812 33.8906
Q42.2812 41.2656 39.6875 44.7188
Q37.1094 48.1875 31.5938 48.1875
Q25.2969 48.1875 21.8906 43.7188
Q18.5 39.2656 18.5 30.9062
L18.5 0
L9.51562 0
L9.51562 54.6875
L18.5 54.6875
L18.5 46.4844
Q20.9062 51.1719 25 53.5781
Q29.1094 56 34.7188 56
Q43.0625 56 47.1875 50.5
Q51.3125 45.0156 51.3125 33.8906" id="BitstreamVeraSansMono-Roman-6e"/>
     <path d="
M29.9844 70.2188
L29.9844 54.6875
L50.3906 54.6875
L50.3906 47.7031
L29.9844 47.7031
L29.9844 18.0156
Q29.9844 11.9688 32.2812 9.5625
Q34.5781 7.17188 40.2812 7.17188
L50.3906 7.17188
L50.3906 0
L39.4062 0
Q29.2969 0 25.1406 4.04688
Q21 8.10938 21 18.0156
L21 47.7031
L6.39062 47.7031
L6.39062 54.6875
L21 54.6875
L21 70.2188
z
" id="BitstreamVeraSansMono-Roman-74"/>
     <path d="
M54.2969 29.5938
L54.2969 25.2031
L15.375 25.2031
L15.375 24.9062
Q15.375 15.9688 20.0312 11.0781
Q24.7031 6.20312 33.2031 6.20312
Q37.5 6.20312 42.1875 7.5625
Q46.875 8.9375 52.2031 11.7188
L52.2031 2.78125
Q47.0781 0.6875 42.3125 -0.359375
Q37.5469 -1.42188 33.1094 -1.42188
Q20.3594 -1.42188 13.1719 6.21875
Q6 13.875 6 27.2969
Q6 40.375 13.0312 48.1875
Q20.0625 56 31.7812 56
Q42.2344 56 48.2656 48.9219
Q54.2969 41.8438 54.2969 29.5938
M45.3125 32.2344
Q45.125 40.1406 41.5781 44.2656
Q38.0312 48.3906 31.3906 48.3906
Q24.9062 48.3906 20.7031 44.0938
Q16.5 39.7969 15.7188 32.1719
z
" id="BitstreamVeraSansMono-Roman-65"/>
     <path d="
M56.3906 43.4062
Q53.5156 45.6562 50.5312 46.6719
Q47.5625 47.7031 44 47.7031
Q35.5938 47.7031 31.1406 42.4219
Q26.7031 37.1562 26.7031 27.2031
L26.7031 0
L17.6719 0
L17.6719 54.6875
L26.7031 54.6875
L26.7031 44
Q28.9531 49.8125 33.6094 52.9062
Q38.2812 56 44.6719 56
Q48 56 50.875 55.1719
Q53.7656 54.3438 56.3906 52.5938
z
" id="BitstreamVeraSansMono-Roman-72"/>
     <path d="
M52.3906 2.59375
Q48.6406 0.59375 44.6719 -0.40625
Q40.7188 -1.42188 36.2812 -1.42188
Q22.2656 -1.42188 14.5156 8.48438
Q6.78125 18.4062 6.78125 36.375
Q6.78125 54.25 14.5625 64.2344
Q22.3594 74.2188 36.2812 74.2188
Q40.7188 74.2188 44.6719 73.2188
Q48.6406 72.2188 52.3906 70.2188
L52.3906 60.1094
Q48.7812 63.0938 44.625 64.6562
Q40.4844 66.2188 36.2812 66.2188
Q26.6562 66.2188 21.875 58.7969
Q17.0938 51.375 17.0938 36.375
Q17.0938 21.4375 21.875 14.0156
Q26.6562 6.59375 36.2812 6.59375
Q40.5781 6.59375 44.7031 8.15625
Q48.8281 9.71875 52.3906 12.7031
z
" id="BitstreamVeraSansMono-Roman-43"/>
    </defs>
    <g transform="translate(221.4 196.2)scale(0.1 -0.1)">
     <use xlink:href="#BitstreamVeraSansMono-Roman-43"/>
     <use x="60.205078125" xlink:href="#BitstreamVeraSansMono-Roman-65"/>
     <use x="120.41015625" xlink:href="#BitstreamVeraSansMono-Roman-6e"/>
     <use x="180.615234375" xlink:href="#BitstreamVeraSansMono-Roman-74"/>
     <use x="240.8203125" xlink:href="#BitstreamVeraSansMono-Roman-65"/>
     <use x="301.025390625" xlink:href="#BitstreamVeraSansMono-Roman-72"/>
    </g>
   </g>
   <g id="text_17">
    <!-- 한글 제목 -->
    <defs>
     <path d="
M81.4062 -7.29688
L75.9062 -7.29688
Q55 -7 50.7969 -7
Q41.4062 -7 33.8438 -7.09375
Q26.2969 -7.20312 19.2031 -7.5
L19.4062 -1.40625
L19.2031 14
L51 14
Q55.2969 14 58.5938 14.0469
Q61.9062 14.0938 64.4062 14.2031
Q66.7969 14.2969 68.8906 14.3906
Q71 14.5 72.9062 14.5938
L72.9062 24.0938
L50.2969 24
Q42.7969 24 34.5469 23.7969
Q26.2969 23.5938 19.2969 23.4062
L19.2969 29.5938
L50.5 29.2969
Q57.5938 29.2969 65.1875 29.3906
Q72.7969 29.5 79.2031 29.7031
L79.2969 9.09375
L51.4062 9
Q46.7031 9 43 9
Q39.2969 9 36.4062 8.90625
Q33.5 8.79688 30.8438 8.75
Q28.2031 8.70312 25.7031 8.5
L25.7031 -1.5
L50.2031 -1.5
Q61 -1.5 68.4531 -1.39062
Q75.9062 -1.29688 81.4062 -1.09375
z

M93.9062 37.4062
L86.5938 37.4062
Q59.5938 37.7031 54.9062 37.7031
Q50.7031 37.7031 46.9531 37.7969
Q43.2031 37.9062 39.5 38
L6 38
L6 43.2031
Q12 43 19.4531 42.8906
Q26.9062 42.7969 35.4062 42.7969
L70 42.9062
L73.0938 57.0938
Q73.5938 59.9062 74.0469 62.5469
Q74.5 65.2031 74.7031 67.5938
Q74.7969 68.4062 74.8438 69.3438
Q74.9062 70.2969 75 71.4062
L48.2969 71.2969
Q38.4062 71.2969 30.5 71.0938
Q22.5938 70.9062 15.5938 70.5938
L15.5938 76.5938
L42.2031 76.4062
L82.5938 76.9062
Q82.4062 74.9062 82.2031 73.25
Q82 71.5938 81.7969 70.2969
Q81.2969 66.5 80.75 63.25
Q80.2031 60 79.5 57.0938
L76.5 43.2031
L93.9062 43.5
z
" id="AppleGothic-ae00"/>
     <path id="AppleGothic-20"/>
     <path d="
M72.2969 54.2969
L72.2969 72.0938
L27.2969 72
L27.2969 54.2969
L49.9062 54
L64.5 54
Q66.5938 54.0938 68.5 54.1406
Q70.4062 54.2031 72.2969 54.2969
M80.2969 -7.29688
L72.7031 -7.59375
Q72.9062 -4.40625 72.9531 -0.703125
Q73 3 73 6.5
L72.9062 14.9062
L49.7031 14.9062
L20.2031 14.5938
L20.2031 21
Q21.2031 20.9062 22.0469 20.9062
Q22.9062 20.9062 23.5938 20.9062
Q29.2969 20.7031 33.8438 20.5469
Q38.4062 20.4062 42.2031 20.4062
L80.0938 20.9062
L79.9062 8.90625
Q79.9062 5.29688 80 0.890625
Q80.0938 -3.5 80.2969 -7.29688
M94.2031 30.5
L85.0938 30.5
Q79.2031 30.5938 69.6406 30.6875
Q60.0938 30.7969 48.9062 30.9062
Q42.2969 30.9062 37.2969 30.9062
Q32.2969 30.9062 28.7969 30.7969
Q25.2969 30.7031 21.9375 30.6406
Q18.5938 30.5938 15.4062 30.5
Q12.2031 30.4062 9.84375 30.4062
Q7.5 30.4062 5.90625 30.2969
L5.90625 36.9062
Q8.20312 36.7969 11.2031 36.6875
Q14.2031 36.5938 17.9062 36.5
Q21.7031 36.4062 24.5938 36.4062
Q27.5 36.4062 29.7969 36.4062
L45.7969 36.4062
L46 42.5
L45.7969 48.2969
L20 48.0938
L20.2969 64.7969
L19.9062 77.9062
L41.9062 77.7969
L79.4062 78
L79.0938 62.0938
L79.4062 48.2969
L61.7031 48.5
L53 48.4062
L52.7969 42.2031
L53 36.4062
L66.2031 36.4062
Q70.7031 36.4062 76.1406 36.5469
Q81.5938 36.7031 88.2031 36.9062
Q90.5938 36.9062 94.2031 37.2031
z
" id="AppleGothic-baa9"/>
     <path d="
M88.7969 79
Q88.7969 78.5938 88.5 77.3438
Q88.2031 76.0938 88.2031 75.4062
L87.7969 36.5
L88.2969 -8.40625
L80.5938 -8.40625
L81 35.0938
L80.9062 81.0938
L81.7969 81.0938
Q84.5 81.0938 86.6406 80.6875
Q88.7969 80.2969 88.7969 79
M71.5 76.4062
Q71.5 75.9062 71.1406 74.6562
Q70.7969 73.4062 70.7969 72.9062
Q70.5938 66.5 70.5 58.8438
Q70.4062 51.2031 70.4062 44.2031
L70.5938 -1.59375
L62.9062 -1.59375
L63.5938 41.5
L45.0938 41.2031
L45.0938 47.7969
L63.5 47.5938
L63.2969 78.2031
L63.7969 78.2031
Q67 78.2031 69.25 77.8438
Q71.5 77.5 71.5 76.4062
M51.9062 64.2969
L34.7031 64.2969
L34.5 57.0938
Q34.5 45.5 38.9062 36.4062
Q42.9062 27.7969 51.7969 19
L47.2031 14
Q45.7969 15.2969 44.4375 16.5938
Q43.0938 17.9062 41.7031 19.2969
Q38.5 23 36.5 26.0938
Q35.2969 28.0938 34.0469 30.5
Q32.7969 32.9062 31.5938 35.9062
Q31.4062 36.4062 31.2031 37.1562
Q31 37.9062 30.7031 38.7031
Q30.0938 37.2969 29.5938 36.1406
Q29.0938 35 28.7031 34.0938
Q27.5 31.4062 26.0469 28.9531
Q24.5938 26.5 22.9062 24.2031
Q21.7969 22.7031 20.0938 20.7969
Q18.4062 18.9062 16.0938 16.7969
Q15 15.7969 13.8906 14.8438
Q12.7969 13.9062 11.7031 12.9062
L5.5 17.4062
Q6 17.4062 9.79688 20.5938
Q12.2031 22.5938 14.3906 25.0469
Q16.5938 27.5 18.5938 30.2969
Q23.9062 37.7031 25.9062 45.5938
Q27 50.4062 27.5 54.5
Q28 58.5938 28 61.5
L28 64.2969
L19.0938 64.5
L10.9062 64.2969
L10.9062 70.7969
L31.4062 70.5
L51.9062 70.7969
z
" id="AppleGothic-c81c"/>
     <path d="
M49.7969 37.7031
Q49.7969 42.2031 46.5 44.9062
Q42.7031 48 35.5938 48
Q28.2969 48 24.5469 45.2969
Q20.7969 42.5938 20.7969 38.5
Q20.7969 33.7969 24.75 31.3906
Q28.7031 29 35.7031 29
Q43 29 46.7969 32
Q49.7969 34.5 49.7969 37.7031
M85.4062 -6.79688
L51.7969 -6.29688
L20.2031 -6.5
L20.2969 3.5
L19.9062 17.5
L21.0938 17.5
Q24.0938 17.5 26.0938 17.2031
Q28.0938 16.9062 28.0938 15.7969
Q28.0938 15.5 27.7969 14.3438
Q27.5 13.2031 27.5 12.2969
L27.5 -0.40625
Q29.5 -0.40625 32.3438 -0.40625
Q35.2031 -0.40625 39 -0.5
Q42.7031 -0.59375 46.25 -0.59375
Q49.7969 -0.59375 53.2969 -0.703125
Q62.7969 -0.703125 70.8906 -0.59375
Q79 -0.5 85.4062 -0.296875
z

M56.7031 38.4062
Q56.7031 31.9062 51.3906 27.9531
Q46.0938 24 35.7969 24
Q24.9062 24 19.5469 28.1406
Q14.2031 32.2969 14.2031 39
Q14.2031 46.4062 20.7969 50
Q23.5 51.5938 27.0938 52.2969
Q30.7031 53 35.2031 53
Q45.2031 53 50.9531 49
Q56.7031 45 56.7031 38.4062
M93.7969 38.7969
L80.0938 38.7969
L79.9062 18.7969
Q79.9062 17.0938 79.9062 15.6406
Q79.9062 14.2031 80.2031 12.4062
L72.9062 12
L73 80.5938
Q75.5938 80.5938 78.2031 80.2969
Q81 80 81 79
Q81 78.7031 80.5938 77.5469
Q80.2031 76.4062 80.2031 75.4062
L79.9062 64.4062
L80 45.2969
L93.7969 45.0938
z

M64.7969 58.5
Q61.4062 58.7031 58.7031 58.75
Q56 58.7969 54 58.9062
Q47.7969 59.0938 42.9375 59.1875
Q38.0938 59.2969 34.5 59.2969
Q27.7969 59.2969 20.5938 59.1875
Q13.4062 59.0938 7.40625 58.9062
L7.40625 64.7031
Q10.2969 64.5938 13.7969 64.5469
Q17.2969 64.5 21.5 64.2969
Q25.7031 64.2031 28.7969 64.1406
Q31.9062 64.0938 34.0938 64.0938
Q43.7969 64.0938 51.3906 64.1875
Q59 64.2969 64.7969 64.5
z

M47.4062 71
Q44.9062 71.2031 41.9531 71.2969
Q39 71.4062 36.0938 71.4062
L23.5 71.0938
L23.5 76.9062
L36.2031 76.7031
L47.4062 76.9062
z
" id="AppleGothic-d55c"/>
    </defs>
    <g transform="translate(195.8278125 23.8)scale(0.12 -0.12)">
     <use xlink:href="#AppleGothic-d55c"/>
     <use x="99.99998474121094" xlink:href="#AppleGothic-ae00"/>
     <use x="199.99996948242188" xlink:href="#AppleGothic-20"/>
     <use x="231.9999542236328" xlink:href="#AppleGothic-c81c"/>
     <use x="331.99993896484375" xlink:href="#AppleGothic-baa9"/>
    </g>
   </g>
  </g>
 </g>
 <defs>
  <clipPath id="p124b8dd147">
   <rect height="223.2" width="334.8" x="54.0" y="28.8"/>
  </clipPath>
 </defs>
</svg>
